<svg width="64" height="64" viewBox="0 0 64 64" fill="none" xmlns="http://www.w3.org/2000/svg">
<rect width="64" height="64" rx="15" fill="#ADE1F5"/>
<path d="M32.7969 31.2969H31.0156C28.8281 31.2969 27.1458 30.8542 25.9688 29.9688C24.7917 29.0729 24.2031 27.8438 24.2031 26.2812C24.2031 24.8229 24.8958 23.6094 26.2812 22.6406C27.6667 21.6615 29.6094 21.1719 32.1094 21.1719C33.776 21.1719 35.3281 21.401 36.7656 21.8594C38.2135 22.3177 39.4167 22.9635 40.375 23.7969L39.5 24.5C38.6458 23.8021 37.5729 23.2604 36.2812 22.875C34.9896 22.4896 33.599 22.2969 32.1094 22.2969C29.9115 22.2969 28.2292 22.6719 27.0625 23.4219C25.9062 24.1719 25.3281 25.125 25.3281 26.2812C25.3281 27.5312 25.8021 28.4948 26.75 29.1719C27.7083 29.8385 29.1302 30.1719 31.0156 30.1719H32.7344C34.9531 30.1719 36.651 30.6198 37.8281 31.5156C39.0156 32.401 39.6094 33.625 39.6094 35.1875C39.6094 36.6458 38.9167 37.8646 37.5312 38.8438C36.1458 39.8125 34.2031 40.2969 31.7031 40.2969C30.0365 40.2969 28.4792 40.0677 27.0312 39.6094C25.5938 39.151 24.3958 38.5052 23.4375 37.6719L24.3125 36.9688C25.1667 37.6667 26.2396 38.2083 27.5312 38.5938C28.8229 38.9792 30.2135 39.1719 31.7031 39.1719C33.901 39.1719 35.5781 38.7969 36.7344 38.0469C37.901 37.2969 38.4844 36.3438 38.4844 35.1875C38.4844 33.9375 38.0052 32.9792 37.0469 32.3125C36.099 31.6354 34.6823 31.2969 32.7969 31.2969ZM32.7969 33.5469H31.0156C28.1198 33.5469 25.8854 32.8906 24.3125 31.5781C22.7396 30.2552 21.9531 28.4896 21.9531 26.2812C21.9531 25.2708 22.1771 24.3229 22.625 23.4375C23.0729 22.5521 23.7135 21.776 24.5469 21.1094C25.3906 20.4323 26.4635 19.901 27.7656 19.5156C29.0677 19.1198 30.5156 18.9219 32.1094 18.9219C34.1198 18.9219 36 19.2292 37.75 19.8438C39.5 20.4479 40.9583 21.2969 42.125 22.3906L41.2188 23.0625C40.1562 22.1042 38.8281 21.3646 37.2344 20.8438C35.6406 20.3125 33.9323 20.0469 32.1094 20.0469C29.2969 20.0469 27.0885 20.6406 25.4844 21.8281C23.8802 23.0156 23.0781 24.5 23.0781 26.2812C23.0781 28.1667 23.7656 29.6615 25.1406 30.7656C26.5156 31.8698 28.474 32.4219 31.0156 32.4219H32.7344C35.8177 32.4219 37.3594 33.3438 37.3594 35.1875C37.3594 36.0208 36.8854 36.7083 35.9375 37.25C35 37.7812 33.5885 38.0469 31.7031 38.0469C30.3802 38.0469 29.151 37.8958 28.0156 37.5938C26.8802 37.2812 25.9427 36.8385 25.2031 36.2656L26.0938 35.5781C27.3958 36.474 29.2656 36.9219 31.7031 36.9219C33.2656 36.9219 34.4115 36.7604 35.1406 36.4375C35.8698 36.1146 36.2344 35.6979 36.2344 35.1875C36.2344 34.5938 35.9792 34.1719 35.4688 33.9219C34.9583 33.6719 34.0677 33.5469 32.7969 33.5469ZM32.7969 29.0469H31.0156C27.974 29.0469 26.4531 28.125 26.4531 26.2812C26.4531 25.4479 26.9219 24.7656 27.8594 24.2344C28.8073 23.6927 30.224 23.4219 32.1094 23.4219C33.4323 23.4219 34.6615 23.5781 35.7969 23.8906C36.9323 24.1927 37.8698 24.6302 38.6094 25.2031L37.7188 25.8906C36.4167 24.9948 34.5469 24.5469 32.1094 24.5469C30.5469 24.5469 29.401 24.7083 28.6719 25.0312C27.9427 25.3542 27.5781 25.7708 27.5781 26.2812C27.5781 26.875 27.8333 27.2969 28.3438 27.5469C28.8542 27.7969 29.7448 27.9219 31.0156 27.9219H32.7969C35.6927 27.9219 37.9271 28.5833 39.5 29.9062C41.0729 31.2188 41.8594 32.9792 41.8594 35.1875C41.8594 36.1979 41.6354 37.1458 41.1875 38.0312C40.7396 38.9167 40.0938 39.6979 39.25 40.375C38.4167 41.0417 37.349 41.5729 36.0469 41.9688C34.7448 42.3542 33.2969 42.5469 31.7031 42.5469C29.6927 42.5469 27.8125 42.2448 26.0625 41.6406C24.3125 41.026 22.8542 40.1719 21.6875 39.0781L22.5938 38.4062C23.6562 39.3646 24.9844 40.1094 26.5781 40.6406C28.1719 41.1615 29.8802 41.4219 31.7031 41.4219C34.5156 41.4219 36.724 40.8281 38.3281 39.6406C39.9323 38.4531 40.7344 36.9688 40.7344 35.1875C40.7344 33.3021 40.0469 31.8073 38.6719 30.7031C37.2969 29.599 35.3385 29.0469 32.7969 29.0469Z" fill="white"/>
<rect width="42" height="3" transform="translate(14.5889 43.2305) rotate(-40)" fill="#ADE1F5"/>
</svg>
