<svg width="450" height="100" viewBox="0 0 450 100" fill="none" xmlns="http://www.w3.org/2000/svg">
<rect width="450" height="100" fill="white"/>
<path d="M83.328 71L98.16 37.4H107.52L122.4 71H112.512L100.896 42.056H104.64L93.024 71H83.328ZM91.44 64.472L93.888 57.464H110.304L112.752 64.472H91.44ZM137.724 71.432C134.844 71.432 132.268 70.856 129.996 69.704C127.756 68.552 125.996 66.968 124.716 64.952C123.436 62.904 122.796 60.568 122.796 57.944C122.796 55.32 123.436 53 124.716 50.984C125.996 48.968 127.756 47.4 129.996 46.28C132.268 45.128 134.844 44.552 137.724 44.552C140.668 44.552 143.212 45.176 145.356 46.424C147.5 47.672 149.02 49.432 149.916 51.704L142.86 55.304C142.252 54.088 141.5 53.208 140.604 52.664C139.708 52.088 138.732 51.8 137.676 51.8C136.62 51.8 135.66 52.04 134.796 52.52C133.932 53 133.244 53.704 132.732 54.632C132.252 55.528 132.012 56.632 132.012 57.944C132.012 59.288 132.252 60.424 132.732 61.352C133.244 62.28 133.932 62.984 134.796 63.464C135.66 63.944 136.62 64.184 137.676 64.184C138.732 64.184 139.708 63.912 140.604 63.368C141.5 62.792 142.252 61.896 142.86 60.68L149.916 64.28C149.02 66.552 147.5 68.312 145.356 69.56C143.212 70.808 140.668 71.432 137.724 71.432ZM166.365 71.432C163.485 71.432 160.909 70.856 158.637 69.704C156.397 68.552 154.637 66.968 153.357 64.952C152.077 62.904 151.437 60.568 151.437 57.944C151.437 55.32 152.077 53 153.357 50.984C154.637 48.968 156.397 47.4 158.637 46.28C160.909 45.128 163.485 44.552 166.365 44.552C169.309 44.552 171.853 45.176 173.997 46.424C176.141 47.672 177.661 49.432 178.557 51.704L171.501 55.304C170.893 54.088 170.141 53.208 169.245 52.664C168.349 52.088 167.373 51.8 166.317 51.8C165.261 51.8 164.301 52.04 163.437 52.52C162.573 53 161.885 53.704 161.373 54.632C160.893 55.528 160.653 56.632 160.653 57.944C160.653 59.288 160.893 60.424 161.373 61.352C161.885 62.28 162.573 62.984 163.437 63.464C164.301 63.944 165.261 64.184 166.317 64.184C167.373 64.184 168.349 63.912 169.245 63.368C170.141 62.792 170.893 61.896 171.501 60.68L178.557 64.28C177.661 66.552 176.141 68.312 173.997 69.56C171.853 70.808 169.309 71.432 166.365 71.432ZM181.897 71V35.384H191.017V71H181.897ZM212.832 71V66.152L212.208 64.952V56.024C212.208 54.584 211.76 53.48 210.864 52.712C210 51.912 208.608 51.512 206.688 51.512C205.44 51.512 204.176 51.72 202.896 52.136C201.616 52.52 200.528 53.064 199.632 53.768L196.56 47.576C198.032 46.616 199.792 45.88 201.84 45.368C203.92 44.824 205.984 44.552 208.032 44.552C212.256 44.552 215.52 45.528 217.824 47.48C220.16 49.4 221.328 52.424 221.328 56.552V71H212.832ZM205.152 71.432C203.072 71.432 201.312 71.08 199.872 70.376C198.432 69.672 197.328 68.712 196.56 67.496C195.824 66.28 195.456 64.92 195.456 63.416C195.456 61.816 195.856 60.44 196.656 59.288C197.488 58.104 198.752 57.208 200.448 56.6C202.144 55.96 204.336 55.64 207.024 55.64H213.168V60.392H208.272C206.8 60.392 205.76 60.632 205.152 61.112C204.576 61.592 204.288 62.232 204.288 63.032C204.288 63.832 204.592 64.472 205.2 64.952C205.808 65.432 206.64 65.672 207.696 65.672C208.688 65.672 209.584 65.432 210.384 64.952C211.216 64.44 211.824 63.672 212.208 62.648L213.456 66.008C212.976 67.8 212.032 69.16 210.624 70.088C209.248 70.984 207.424 71.432 205.152 71.432ZM227.084 71V44.984H236.204V71H227.084ZM231.644 42.104C229.98 42.104 228.636 41.64 227.612 40.712C226.588 39.784 226.076 38.632 226.076 37.256C226.076 35.88 226.588 34.728 227.612 33.8C228.636 32.872 229.98 32.408 231.644 32.408C233.308 32.408 234.652 32.856 235.676 33.752C236.7 34.616 237.212 35.736 237.212 37.112C237.212 38.552 236.7 39.752 235.676 40.712C234.684 41.64 233.34 42.104 231.644 42.104ZM276.019 44.552C278.035 44.552 279.827 44.968 281.395 45.8C282.995 46.6 284.243 47.848 285.139 49.544C286.067 51.24 286.531 53.432 286.531 56.12V71H277.411V57.608C277.411 55.752 277.059 54.408 276.355 53.576C275.651 52.712 274.691 52.28 273.475 52.28C272.611 52.28 271.827 52.488 271.123 52.904C270.419 53.32 269.875 53.96 269.491 54.824C269.107 55.656 268.915 56.744 268.915 58.088V71H259.795V57.608C259.795 55.752 259.443 54.408 258.739 53.576C258.067 52.712 257.107 52.28 255.859 52.28C254.963 52.28 254.163 52.488 253.459 52.904C252.787 53.32 252.243 53.96 251.827 54.824C251.443 55.656 251.251 56.744 251.251 58.088V71H242.131V44.984H250.819V52.232L249.091 50.168C250.051 48.312 251.363 46.92 253.027 45.992C254.691 45.032 256.547 44.552 258.595 44.552C260.931 44.552 262.979 45.16 264.739 46.376C266.531 47.56 267.731 49.416 268.339 51.944L265.363 51.32C266.291 49.208 267.683 47.56 269.539 46.376C271.427 45.16 273.587 44.552 276.019 44.552ZM299.871 71V44.936H289.551V37.4H319.647V44.936H309.375V71H299.871ZM322.241 71V44.984H330.929V52.568L329.633 50.408C330.401 48.456 331.649 47 333.377 46.04C335.105 45.048 337.201 44.552 339.665 44.552V52.76C339.249 52.696 338.881 52.664 338.561 52.664C338.273 52.632 337.953 52.616 337.601 52.616C335.745 52.616 334.241 53.128 333.089 54.152C331.937 55.144 331.361 56.776 331.361 59.048V71H322.241ZM356.25 71.432C353.402 71.432 350.874 70.856 348.666 69.704C346.458 68.552 344.714 66.968 343.434 64.952C342.186 62.904 341.562 60.568 341.562 57.944C341.562 55.32 342.186 53 343.434 50.984C344.714 48.968 346.458 47.4 348.666 46.28C350.874 45.128 353.402 44.552 356.25 44.552C359.098 44.552 361.626 45.128 363.834 46.28C366.074 47.4 367.818 48.968 369.066 50.984C370.314 53 370.938 55.32 370.938 57.944C370.938 60.568 370.314 62.904 369.066 64.952C367.818 66.968 366.074 68.552 363.834 69.704C361.626 70.856 359.098 71.432 356.25 71.432ZM356.25 64.184C357.306 64.184 358.234 63.944 359.034 63.464C359.866 62.984 360.522 62.28 361.002 61.352C361.482 60.392 361.722 59.256 361.722 57.944C361.722 56.632 361.482 55.528 361.002 54.632C360.522 53.704 359.866 53 359.034 52.52C358.234 52.04 357.306 51.8 356.25 51.8C355.226 51.8 354.298 52.04 353.466 52.52C352.666 53 352.01 53.704 351.498 54.632C351.018 55.528 350.778 56.632 350.778 57.944C350.778 59.256 351.018 60.392 351.498 61.352C352.01 62.28 352.666 62.984 353.466 63.464C354.298 63.944 355.226 64.184 356.25 64.184ZM381.707 71L371.003 44.984H380.363L388.907 66.728H384.203L393.179 44.984H401.867L391.115 71H381.707ZM417.154 71.432C414.082 71.432 411.394 70.856 409.09 69.704C406.818 68.52 405.042 66.92 403.762 64.904C402.514 62.856 401.89 60.536 401.89 57.944C401.89 55.352 402.498 53.048 403.714 51.032C404.962 48.984 406.674 47.4 408.85 46.28C411.026 45.128 413.474 44.552 416.194 44.552C418.754 44.552 421.09 45.08 423.202 46.136C425.314 47.16 426.994 48.68 428.242 50.696C429.49 52.712 430.114 55.16 430.114 58.04C430.114 58.36 430.098 58.728 430.066 59.144C430.034 59.56 430.002 59.944 429.97 60.296H409.378V55.496H425.122L421.666 56.84C421.698 55.656 421.474 54.632 420.994 53.768C420.546 52.904 419.906 52.232 419.074 51.752C418.274 51.272 417.33 51.032 416.242 51.032C415.154 51.032 414.194 51.272 413.362 51.752C412.562 52.232 411.938 52.92 411.49 53.816C411.042 54.68 410.818 55.704 410.818 56.888V58.28C410.818 59.56 411.074 60.664 411.586 61.592C412.13 62.52 412.898 63.24 413.89 63.752C414.882 64.232 416.066 64.472 417.442 64.472C418.722 64.472 419.81 64.296 420.706 63.944C421.634 63.56 422.546 62.984 423.442 62.216L428.242 67.208C426.994 68.584 425.458 69.64 423.634 70.376C421.81 71.08 419.65 71.432 417.154 71.432Z" fill="#504B8E"/>
<path d="M67.9991 47.2222C67.9991 59.4952 58.0499 69.4444 45.7769 69.4444C33.5039 69.4444 23.5547 59.4952 23.5547 47.2222C23.5547 34.9492 33.5039 25 45.7769 25C58.0499 25 67.9991 34.9492 67.9991 47.2222Z" fill="#D8E3FF"/>
<path fill-rule="evenodd" clip-rule="evenodd" d="M69.6448 47.2238C69.6448 60.4059 58.9586 71.0921 45.7765 71.0921C32.5944 71.0921 21.9082 60.4059 21.9082 47.2238C21.9082 34.0417 32.5944 23.3555 45.7765 23.3555C58.9586 23.3555 69.6448 34.0417 69.6448 47.2238ZM45.7765 69.446C58.0495 69.446 67.9987 59.4968 67.9987 47.2238C67.9987 34.9508 58.0495 25.0016 45.7765 25.0016C33.5035 25.0016 23.5543 34.9508 23.5543 47.2238C23.5543 59.4968 33.5035 69.446 45.7765 69.446Z" fill="#4B49AC"/>
<path fill-rule="evenodd" clip-rule="evenodd" d="M25.2004 48.0469C24.7459 48.0469 24.3774 47.6784 24.3774 47.2238C24.3774 35.4054 33.9581 25.8247 45.7766 25.8247C46.2311 25.8247 46.5996 26.1931 46.5996 26.6477C46.5996 27.1023 46.2311 27.4707 45.7766 27.4707C34.8672 27.4707 26.0235 36.3145 26.0235 47.2238C26.0235 47.6784 25.655 48.0469 25.2004 48.0469Z" fill="#8A9DF9"/>
<path fill-rule="evenodd" clip-rule="evenodd" d="M66.3523 46.4023C66.8069 46.4023 67.1754 46.7708 67.1754 47.2254C67.1754 59.0438 57.5946 68.6246 45.7762 68.6246C45.3216 68.6246 44.9531 68.2561 44.9531 67.8015C44.9531 67.347 45.3216 66.9785 45.7762 66.9785C56.6855 66.9785 65.5293 58.1347 65.5293 47.2254C65.5293 46.7708 65.8977 46.4023 66.3523 46.4023Z" fill="#8A9DF9"/>
<path d="M62.2382 47.2226C62.2382 56.3137 54.8684 63.6835 45.7773 63.6835C36.6862 63.6835 29.3164 56.3137 29.3164 47.2226C29.3164 38.1315 36.6862 30.7617 45.7773 30.7617C54.8684 30.7617 62.2382 38.1315 62.2382 47.2226Z" fill="#D8E3FF"/>
<path fill-rule="evenodd" clip-rule="evenodd" d="M63.8839 47.2242C63.8839 57.2244 55.7771 65.3312 45.7769 65.3312C35.7767 65.3312 27.6699 57.2244 27.6699 47.2242C27.6699 37.224 35.7767 29.1172 45.7769 29.1172C55.7771 29.1172 63.8839 37.224 63.8839 47.2242ZM45.7769 63.6851C54.868 63.6851 62.2378 56.3153 62.2378 47.2242C62.2378 38.1331 54.868 30.7633 45.7769 30.7633C36.6858 30.7633 29.316 38.1331 29.316 47.2242C29.316 56.3153 36.6858 63.6851 45.7769 63.6851Z" fill="#4B49AC"/>
<path fill-rule="evenodd" clip-rule="evenodd" d="M45.7762 61.2172C53.5036 61.2172 59.768 54.9529 59.768 47.2254C59.768 46.7709 60.1365 46.4024 60.591 46.4024C61.0456 46.4024 61.4141 46.7709 61.4141 47.2254C61.4141 55.862 54.4128 62.8633 45.7762 62.8633C45.3216 62.8633 44.9532 62.4948 44.9532 62.0402C44.9532 61.5857 45.3216 61.2172 45.7762 61.2172Z" fill="#D8E3FF"/>
<path fill-rule="evenodd" clip-rule="evenodd" d="M45.7765 33.232C38.0491 33.232 31.7848 39.4964 31.7848 47.2238C31.7848 47.6784 31.4163 48.0468 30.9617 48.0468C30.5072 48.0468 30.1387 47.6784 30.1387 47.2238C30.1387 38.5872 37.14 31.5859 45.7765 31.5859C46.2311 31.5859 46.5996 31.9544 46.5996 32.409C46.5996 32.8635 46.2311 33.232 45.7765 33.232Z" fill="#D8E3FF"/>
<path d="M20.6222 69.1317L18.5022 64.8917C18.2713 64.43 18.6071 63.8867 19.1233 63.8867L28.4164 63.8867C28.7999 63.8867 29.1108 64.1976 29.1108 64.5812L29.1108 74.3034C29.1108 74.6869 28.7999 74.9978 28.4164 74.9978L19.1233 74.9978C18.6071 74.9978 18.2713 74.4546 18.5022 73.9928L20.6222 69.7528C20.7199 69.5573 20.7199 69.3272 20.6222 69.1317Z" fill="#504B8E"/>
<path d="M70.9328 69.1317L73.0527 64.8917C73.2836 64.43 72.9479 63.8867 72.4316 63.8867L63.1386 63.8867C62.755 63.8867 62.4441 64.1976 62.4441 64.5812L62.4441 74.3034C62.4441 74.6869 62.755 74.9978 63.1386 74.9978L72.4316 74.9978C72.9478 74.9978 73.2836 74.4546 73.0527 73.9928L70.9328 69.7528C70.835 69.5573 70.835 69.3272 70.9328 69.1317Z" fill="#504B8E"/>
<path fill-rule="evenodd" clip-rule="evenodd" d="M19.2246 69.4444L17.2599 65.515C16.5673 64.1298 17.5745 62.5 19.1233 62.5L28.4163 62.5C29.5669 62.5 30.4996 63.4327 30.4996 64.5833L30.4996 74.3056C30.4996 75.4561 29.5669 76.3889 28.4163 76.3889L19.1233 76.3889C17.5745 76.3889 16.5673 74.7591 17.2599 73.3739L19.2246 69.4444ZM19.3795 69.7542C19.3796 69.7545 19.3797 69.7548 19.3799 69.755L20.001 69.4444L19.3799 69.755L19.3795 69.7542ZM72.3302 69.4444L74.2949 65.515C74.9876 64.1298 73.9803 62.5 72.4316 62.5L63.1385 62.5C61.9879 62.5 61.0552 63.4327 61.0552 64.5833L61.0552 74.3056C61.0552 75.4561 61.9879 76.3889 63.1385 76.3889L72.4316 76.3889C73.9803 76.3889 74.9876 74.7591 74.2949 73.3739L72.3302 69.4444ZM73.0527 64.8939L70.9327 69.1339C70.8349 69.3294 70.8349 69.5595 70.9327 69.755L73.0527 73.995C73.2836 74.4567 72.9478 75 72.4316 75L63.1385 75C62.755 75 62.4441 74.6891 62.4441 74.3056L62.4441 64.5833C62.4441 64.1998 62.755 63.8889 63.1385 63.8889L72.4316 63.8889C72.9478 63.8889 73.2836 64.4322 73.0527 64.8939ZM18.5021 64.8939L20.6221 69.1339C20.7199 69.3294 20.7199 69.5595 20.6221 69.755L18.5021 73.995C18.2713 74.4567 18.607 75 19.1233 75L28.4163 75C28.7998 75 29.1107 74.6891 29.1107 74.3056L29.1107 64.5833C29.1107 64.1998 28.7998 63.8889 28.4163 63.8889L19.1233 63.8889C18.607 63.8889 18.2713 64.4322 18.5021 64.8939Z" fill="#504B8E"/>
<path fill-rule="evenodd" clip-rule="evenodd" d="M19.4956 64.5156C19.6228 64.3138 19.8446 64.1914 20.0831 64.1914H23.0345C23.418 64.1914 23.729 64.5023 23.729 64.8859C23.729 65.2694 23.418 65.5803 23.0345 65.5803H21.185L22.6193 68.5793C22.7848 68.9253 22.6385 69.3399 22.2925 69.5054C21.9465 69.6709 21.5318 69.5245 21.3664 69.1785L19.4566 65.1855C19.3537 64.9703 19.3684 64.7174 19.4956 64.5156Z" fill="#504B8E"/>
<path d="M65.2227 71.526L65.2227 61.8038C65.2227 61.4203 64.9117 61.1094 64.5282 61.1094L27.0282 61.1094C26.6447 61.1094 26.3338 61.4203 26.3338 61.8038L26.3338 71.526C26.3338 71.9096 26.6447 72.2205 27.0282 72.2205L64.5282 72.2205C64.9117 72.2205 65.2227 71.9096 65.2227 71.526Z" fill="#504B8E"/>
<path fill-rule="evenodd" clip-rule="evenodd" d="M66.6113 61.8021L66.6113 71.5243C66.6113 72.6749 65.6786 73.6076 64.528 73.6076L27.028 73.6076C25.8774 73.6076 24.9447 72.6749 24.9447 71.5243L24.9447 61.8021C24.9447 60.6515 25.8774 59.7187 27.028 59.7187L64.528 59.7187C65.6786 59.7187 66.6113 60.6515 66.6113 61.8021ZM65.2224 61.8021L65.2224 71.5243C65.2224 71.9078 64.9115 72.2188 64.528 72.2188L27.028 72.2187C26.6445 72.2187 26.3335 71.9078 26.3335 71.5243L26.3335 61.8021C26.3335 61.4186 26.6445 61.1076 27.028 61.1076L64.528 61.1076C64.9115 61.1076 65.2224 61.4186 65.2224 61.8021Z" fill="#504B8E"/>
<path d="M63.3036 66.9284C62.9104 66.9284 62.5916 66.6174 62.5916 66.2337C62.5916 65.8501 62.9104 65.5391 63.3036 65.5391C63.6968 65.5391 64.0156 65.8501 64.0156 66.2337C64.0156 66.6174 63.6968 66.9284 63.3036 66.9284Z" fill="#504B8E"/>
<path d="M60.5948 66.65C60.1056 66.65 59.7091 66.2632 59.7091 65.786C59.7091 65.3087 60.1056 64.9219 60.5948 64.9219C61.0839 64.9219 61.4805 65.3087 61.4805 65.786C61.4805 66.2632 61.0839 66.65 60.5948 66.65Z" fill="#504B8E"/>
<path d="M61.8013 68.6258C61.5567 68.6258 61.3585 68.4324 61.3585 68.1938C61.3585 67.9552 61.5567 67.7617 61.8013 67.7617C62.0459 67.7617 62.2441 67.9552 62.2441 68.1938C62.2441 68.4324 62.0459 68.6258 61.8013 68.6258Z" fill="#504B8E"/>
<path d="M61.0376 64.0555C60.7931 64.0555 60.5948 63.8621 60.5948 63.6234C60.5948 63.3848 60.7931 63.1914 61.0376 63.1914C61.2822 63.1914 61.4805 63.3848 61.4805 63.6234C61.4805 63.8621 61.2822 64.0555 61.0376 64.0555Z" fill="#504B8E"/>
<path d="M58.7095 68.1922C58.4649 68.1922 58.2667 67.9988 58.2667 67.7602C58.2667 67.5216 58.4649 67.3281 58.7095 67.3281C58.9541 67.3281 59.1523 67.5216 59.1523 67.7602C59.1523 67.9988 58.9541 68.1922 58.7095 68.1922Z" fill="#504B8E"/>
<path d="M58.2681 65.9696C58.0235 65.9696 57.8253 65.7761 57.8253 65.5375C57.8253 65.2989 58.0235 65.1055 58.2681 65.1055C58.5127 65.1055 58.7109 65.2989 58.7109 65.5375C58.7109 65.7761 58.5127 65.9696 58.2681 65.9696Z" fill="#504B8E"/>
<path d="M55.2486 70.9813C55.004 70.9813 54.8057 70.7878 54.8057 70.5492C54.8057 70.3106 55.004 70.1172 55.2486 70.1172C55.4931 70.1172 55.6914 70.3106 55.6914 70.5492C55.6914 70.7878 55.4931 70.9813 55.2486 70.9813Z" fill="#504B8E"/>
<path d="M64.0591 69.3328C63.8145 69.3328 63.6163 69.1394 63.6163 68.9008C63.6163 68.6622 63.8145 68.4687 64.0591 68.4687C64.3037 68.4687 64.502 68.6622 64.502 68.9008C64.502 69.1394 64.3037 69.3328 64.0591 69.3328Z" fill="#504B8E"/>
<path d="M59.873 70.2773C59.475 70.2773 59.1523 69.9625 59.1523 69.5742C59.1523 69.1859 59.475 68.8711 59.873 68.8711C60.2711 68.8711 60.5937 69.1859 60.5937 69.5742C60.5937 69.9625 60.2711 70.2773 59.873 70.2773Z" fill="#504B8E"/>
<path d="M62.9648 70.9805C62.5668 70.9805 62.2441 70.6657 62.2441 70.2773C62.2441 69.889 62.5668 69.5742 62.9648 69.5742C63.3629 69.5742 63.6855 69.889 63.6855 70.2773C63.6855 70.6657 63.3629 70.9805 62.9648 70.9805Z" fill="#504B8E"/>
<path d="M56.6602 69.5977C56.2621 69.5977 55.9395 69.2829 55.9395 68.8945C55.9395 68.5062 56.2621 68.1914 56.6602 68.1914C57.0582 68.1914 57.3809 68.5062 57.3809 68.8945C57.3809 69.2829 57.0582 69.5977 56.6602 69.5977Z" fill="#504B8E"/>
<path d="M57.8247 71.1961C57.5802 71.1961 57.3819 71.0027 57.3819 70.7641C57.3819 70.5255 57.5802 70.332 57.8247 70.332C58.0693 70.332 58.2676 70.5255 58.2676 70.7641C58.2676 71.0027 58.0693 71.1961 57.8247 71.1961Z" fill="#504B8E"/>
<path fill-rule="evenodd" clip-rule="evenodd" d="M26.7676 62.1085C26.7676 61.725 27.0785 61.4141 27.462 61.4141H53.5037C53.8872 61.4141 54.1981 61.725 54.1981 62.1085C54.1981 62.492 53.8872 62.803 53.5037 62.803H28.1565V67.6641C28.1565 68.0476 27.8456 68.3585 27.462 68.3585C27.0785 68.3585 26.7676 68.0476 26.7676 67.6641V62.1085Z" fill="#504B8E"/>
<path d="M47.5573 53.1895H45.0312V43.4522L42.0156 44.3874V42.3333L47.2864 40.4453H47.5573V53.1895Z" fill="#D8E3FF"/>
<path fill-rule="evenodd" clip-rule="evenodd" d="M49.0487 53.189C49.0487 54.0129 48.3808 54.6808 47.5569 54.6808H45.0308C44.2069 54.6808 43.539 54.0129 43.539 53.189V45.4763L42.4571 45.8118C42.0044 45.9522 41.5119 45.8691 41.1303 45.588C40.7487 45.3068 40.5234 44.861 40.5234 44.387V42.3329C40.5234 41.703 40.9191 41.141 41.5121 40.9285L46.7829 39.0405C46.9443 38.9827 47.1145 38.9531 47.2859 38.9531H47.5569C48.3808 38.9531 49.0487 39.621 49.0487 40.4449V53.189ZM45.0308 43.4517V53.189H47.5569V40.4449H47.2859L42.0152 42.3329V44.387L45.0308 43.4517Z" fill="#D8E3FF"/>
<path d="M41.1236 50H39.2344L41.6882 42.7273H44.0284L46.4822 50H44.593L42.8849 44.5597H42.8281L41.1236 50ZM40.8714 47.1378H44.8203V48.473H40.8714V47.1378ZM46.1191 44.1548V42.7273H52.2662V44.1548H50.0609V50H48.3279V44.1548H46.1191Z" fill="#504B8E"/>
</svg>
