<svg width="94" height="100" viewBox="0 0 94 100" fill="none" xmlns="http://www.w3.org/2000/svg">
<rect width="94" height="100" fill="white"/>
<path d="M74.0012 46.6676C74.0012 61.3957 62.0617 73.3352 47.3336 73.3352C32.6055 73.3352 20.666 61.3957 20.666 46.6676C20.666 31.9395 32.6055 20 47.3336 20C62.0617 20 74.0012 31.9395 74.0012 46.6676Z" fill="#D8E3FF"/>
<path fill-rule="evenodd" clip-rule="evenodd" d="M75.9773 46.6664C75.9773 62.4855 63.1535 75.3094 47.3344 75.3094C31.5153 75.3094 18.6914 62.4855 18.6914 46.6664C18.6914 30.8473 31.5153 18.0234 47.3344 18.0234C63.1535 18.0234 75.9773 30.8473 75.9773 46.6664ZM47.3344 73.334C62.0625 73.334 74.002 61.3945 74.002 46.6664C74.002 31.9383 62.0625 19.9988 47.3344 19.9988C32.6063 19.9988 20.6668 31.9383 20.6668 46.6664C20.6668 61.3945 32.6063 73.334 47.3344 73.334Z" fill="#4B49AC"/>
<path fill-rule="evenodd" clip-rule="evenodd" d="M22.6424 47.6523C22.0969 47.6523 21.6547 47.2101 21.6547 46.6647C21.6547 32.482 33.152 20.9848 47.3346 20.9848C47.8801 20.9848 48.3223 21.427 48.3223 21.9724C48.3223 22.5179 47.8801 22.9601 47.3346 22.9601C34.2429 22.9601 23.63 33.573 23.63 46.6647C23.63 47.2101 23.1878 47.6523 22.6424 47.6523Z" fill="#8A9DF9"/>
<path fill-rule="evenodd" clip-rule="evenodd" d="M72.0276 45.6797C72.573 45.6797 73.0152 46.1219 73.0152 46.6674C73.0152 60.85 61.518 72.3473 47.3353 72.3473C46.7899 72.3473 46.3477 71.9051 46.3477 71.3596C46.3477 70.8141 46.7899 70.3719 47.3353 70.3719C60.427 70.3719 71.0399 59.759 71.0399 46.6674C71.0399 46.1219 71.4821 45.6797 72.0276 45.6797Z" fill="#8A9DF9"/>
<path d="M67.0876 46.6678C67.0876 57.5775 58.2436 66.4216 47.3339 66.4216C36.4241 66.4216 27.5801 57.5775 27.5801 46.6678C27.5801 35.7581 36.4241 26.9141 47.3339 26.9141C58.2436 26.9141 67.0876 35.7581 67.0876 46.6678Z" fill="#D8E3FF"/>
<path fill-rule="evenodd" clip-rule="evenodd" d="M69.0638 46.6666C69.0638 58.6673 59.3353 68.3958 47.3346 68.3958C35.3339 68.3958 25.6055 58.6673 25.6055 46.6666C25.6055 34.666 35.3339 24.9375 47.3346 24.9375C59.3353 24.9375 69.0638 34.666 69.0638 46.6666ZM47.3346 66.4204C58.2443 66.4204 67.0884 57.5764 67.0884 46.6666C67.0884 35.7569 58.2443 26.9129 47.3346 26.9129C36.4249 26.9129 27.5808 35.7569 27.5808 46.6666C27.5808 57.5764 36.4249 66.4204 47.3346 66.4204Z" fill="#4B49AC"/>
<path fill-rule="evenodd" clip-rule="evenodd" d="M47.3335 63.4582C56.6068 63.4582 64.1242 55.9408 64.1242 46.6675C64.1242 46.122 64.5664 45.6798 65.1119 45.6798C65.6574 45.6798 66.0996 46.122 66.0996 46.6675C66.0996 57.0317 57.6977 65.4336 47.3335 65.4336C46.788 65.4336 46.3458 64.9914 46.3458 64.4459C46.3458 63.9004 46.788 63.4582 47.3335 63.4582Z" fill="#D8E3FF"/>
<path fill-rule="evenodd" clip-rule="evenodd" d="M47.3344 29.8738C38.0612 29.8738 30.5437 37.3913 30.5437 46.6645C30.5437 47.21 30.1015 47.6522 29.556 47.6522C29.0106 47.6522 28.5684 47.21 28.5684 46.6645C28.5684 36.3003 36.9702 27.8984 47.3344 27.8984C47.8799 27.8984 48.3221 28.3406 48.3221 28.8861C48.3221 29.4316 47.8799 29.8738 47.3344 29.8738Z" fill="#D8E3FF"/>
<path d="M17.1464 72.9583L14.6023 67.8701C14.3253 67.316 14.7282 66.6641 15.3477 66.6641L26.4997 66.6641C26.96 66.6641 27.3331 67.0372 27.3331 67.4974L27.3331 79.1645C27.3331 79.6247 26.96 79.9979 26.4997 79.9979L15.3477 79.9979C14.7282 79.9979 14.3253 79.3459 14.6023 78.7918L17.1464 73.7036C17.2637 73.469 17.2637 73.1929 17.1464 72.9583Z" fill="#504B8E"/>
<path d="M77.5212 72.9583L80.0652 67.8701C80.3423 67.316 79.9394 66.6641 79.3199 66.6641L68.1678 66.6641C67.7076 66.6641 67.3345 67.0372 67.3345 67.4974L67.3345 79.1645C67.3345 79.6247 67.7076 79.9979 68.1678 79.9979L79.3199 79.9979C79.9394 79.9979 80.3423 79.3459 80.0652 78.7918L77.5212 73.7037C77.4039 73.469 77.4039 73.1929 77.5212 72.9583Z" fill="#504B8E"/>
<path fill-rule="evenodd" clip-rule="evenodd" d="M15.4703 73.3336L13.1126 68.6182C12.2814 66.9559 13.4902 65 15.3487 65L26.5008 65C27.8815 65 29.0009 66.1193 29.0009 67.5001L29.0009 79.1672C29.0009 80.5479 27.8815 81.6672 26.5008 81.6672L15.3487 81.6672C13.4902 81.6672 12.2814 79.7114 13.1126 78.0491L15.4703 73.3336ZM15.6562 73.7054C15.6564 73.7057 15.6565 73.706 15.6567 73.7063L16.4021 73.3336L15.6567 73.7063L15.6562 73.7054ZM79.1993 73.3336L81.5571 68.6182C82.3882 66.9558 81.1794 65 79.3209 65L68.1689 65C66.7881 65 65.6688 66.1193 65.6688 67.5001L65.6688 79.1672C65.6688 80.5479 66.7881 81.6672 68.1689 81.6672L79.3209 81.6672C81.1794 81.6672 82.3882 79.7114 81.5571 78.0491L79.1993 73.3336ZM80.0663 67.8728L77.5222 72.9609C77.4049 73.1955 77.4049 73.4717 77.5222 73.7063L80.0663 78.7945C80.3433 79.3486 79.9404 80.0005 79.3209 80.0005L68.1689 80.0005C67.7086 80.0005 67.3355 79.6274 67.3355 79.1672L67.3355 67.5001C67.3355 67.0398 67.7086 66.6667 68.1689 66.6667L79.3209 66.6667C79.9404 66.6667 80.3433 67.3187 80.0663 67.8728ZM14.6034 67.8728L17.1474 72.9609C17.2647 73.1955 17.2647 73.4717 17.1474 73.7063L14.6034 78.7945C14.3263 79.3486 14.7292 80.0005 15.3487 80.0005L26.5008 80.0005C26.961 80.0005 27.3341 79.6274 27.3341 79.1672L27.3341 67.5001C27.3341 67.0398 26.961 66.6667 26.5008 66.6667L15.3487 66.6667C14.7292 66.6667 14.3263 67.3187 14.6034 67.8728Z" fill="#504B8E"/>
<path fill-rule="evenodd" clip-rule="evenodd" d="M15.7943 67.4203C15.947 67.1781 16.2132 67.0312 16.4994 67.0312H20.0412C20.5014 67.0312 20.8745 67.4044 20.8745 67.8646C20.8745 68.3249 20.5014 68.698 20.0412 68.698H17.8217L19.5429 72.2969C19.7415 72.7121 19.5659 73.2097 19.1507 73.4083C18.7355 73.6068 18.2379 73.4312 18.0393 73.016L15.7476 68.2242C15.6241 67.966 15.6417 67.6624 15.7943 67.4203Z" fill="#504B8E"/>
<path d="M70.668 75.8325L70.668 64.1654C70.668 63.7051 70.2949 63.332 69.8346 63.332L24.833 63.332C24.3728 63.332 23.9997 63.7051 23.9997 64.1654L23.9997 75.8325C23.9997 76.2927 24.3728 76.6658 24.833 76.6658L69.8346 76.6658C70.2949 76.6658 70.668 76.2927 70.668 75.8325Z" fill="#504B8E"/>
<path fill-rule="evenodd" clip-rule="evenodd" d="M72.3359 64.1641L72.3359 75.8312C72.3359 77.212 71.2166 78.3313 69.8358 78.3313L24.8343 78.3313C23.4535 78.3313 22.3342 77.212 22.3342 75.8312L22.3342 64.1641C22.3342 62.7834 23.4535 61.6641 24.8343 61.6641L69.8359 61.6641C71.2166 61.6641 72.3359 62.7834 72.3359 64.1641ZM70.6692 64.1641L70.6692 75.8312C70.6692 76.2915 70.2961 76.6646 69.8358 76.6646L24.8343 76.6646C24.374 76.6646 24.0009 76.2915 24.0009 75.8312L24.0009 64.1641C24.0009 63.7039 24.374 63.3308 24.8343 63.3308L69.8359 63.3308C70.2961 63.3308 70.6692 63.7039 70.6692 64.1641Z" fill="#504B8E"/>
<path d="M68.3662 70.3157C67.8943 70.3157 67.5118 69.9424 67.5118 69.4821C67.5118 69.0217 67.8943 68.6484 68.3662 68.6484C68.8382 68.6484 69.2207 69.0217 69.2207 69.4821C69.2207 69.9424 68.8382 70.3157 68.3662 70.3157Z" fill="#504B8E"/>
<path d="M65.1149 69.9801C64.5279 69.9801 64.052 69.5159 64.052 68.9432C64.052 68.3705 64.5279 67.9062 65.1149 67.9062C65.7019 67.9062 66.1777 68.3705 66.1777 68.9432C66.1777 69.5159 65.7019 69.9801 65.1149 69.9801Z" fill="#504B8E"/>
<path d="M66.5643 72.3533C66.2708 72.3533 66.0328 72.1212 66.0328 71.8349C66.0328 71.5485 66.2708 71.3164 66.5643 71.3164C66.8578 71.3164 67.0957 71.5485 67.0957 71.8349C67.0957 72.1212 66.8578 72.3533 66.5643 72.3533Z" fill="#504B8E"/>
<path d="M65.6463 66.869C65.3528 66.869 65.1149 66.6368 65.1149 66.3505C65.1149 66.0642 65.3528 65.832 65.6463 65.832C65.9398 65.832 66.1777 66.0642 66.1777 66.3505C66.1777 66.6368 65.9398 66.869 65.6463 66.869Z" fill="#504B8E"/>
<path d="M62.8553 71.8338C62.5618 71.8338 62.3239 71.6017 62.3239 71.3153C62.3239 71.029 62.5618 70.7969 62.8553 70.7969C63.1488 70.7969 63.3867 71.029 63.3867 71.3153C63.3867 71.6017 63.1488 71.8338 62.8553 71.8338Z" fill="#504B8E"/>
<path d="M62.3221 69.1658C62.0286 69.1658 61.7907 68.9337 61.7907 68.6474C61.7907 68.361 62.0286 68.1289 62.3221 68.1289C62.6156 68.1289 62.8535 68.361 62.8535 68.6474C62.8535 68.9337 62.6156 69.1658 62.3221 69.1658Z" fill="#504B8E"/>
<path d="M58.699 75.1815C58.4055 75.1815 58.1676 74.9493 58.1676 74.663C58.1676 74.3767 58.4055 74.1445 58.699 74.1445C58.9925 74.1445 59.2305 74.3767 59.2305 74.663C59.2305 74.9493 58.9925 75.1815 58.699 75.1815Z" fill="#504B8E"/>
<path d="M69.2733 73.201C68.9798 73.201 68.7418 72.9689 68.7418 72.6825C68.7418 72.3962 68.9798 72.1641 69.2733 72.1641C69.5668 72.1641 69.8047 72.3962 69.8047 72.6825C69.8047 72.9689 69.5668 73.201 69.2733 73.201Z" fill="#504B8E"/>
<path d="M64.2504 74.336C63.7727 74.336 63.3855 73.9582 63.3855 73.4922C63.3855 73.0262 63.7727 72.6484 64.2504 72.6484C64.728 72.6484 65.1152 73.0262 65.1152 73.4922C65.1152 73.9582 64.728 74.336 64.2504 74.336Z" fill="#504B8E"/>
<path d="M67.9593 75.1797C67.4817 75.1797 67.0945 74.802 67.0945 74.336C67.0945 73.87 67.4817 73.4922 67.9593 73.4922C68.437 73.4922 68.8242 73.87 68.8242 74.336C68.8242 74.802 68.437 75.1797 67.9593 75.1797Z" fill="#504B8E"/>
<path d="M60.3949 73.5235C59.9172 73.5235 59.53 73.1457 59.53 72.6797C59.53 72.2137 59.9172 71.8359 60.3949 71.8359C60.8725 71.8359 61.2598 72.2137 61.2598 72.6797C61.2598 73.1457 60.8725 73.5235 60.3949 73.5235Z" fill="#504B8E"/>
<path d="M61.7908 75.4354C61.4973 75.4354 61.2594 75.2032 61.2594 74.9169C61.2594 74.6306 61.4973 74.3984 61.7908 74.3984C62.0843 74.3984 62.3223 74.6306 62.3223 74.9169C62.3223 75.2032 62.0843 75.4354 61.7908 75.4354Z" fill="#504B8E"/>
<path fill-rule="evenodd" clip-rule="evenodd" d="M24.5215 64.5287C24.5215 64.0684 24.8946 63.6953 25.3548 63.6953H56.6059C57.0662 63.6953 57.4393 64.0684 57.4393 64.5287C57.4393 64.9889 57.0662 65.362 56.6059 65.362H26.1882V71.1956C26.1882 71.6558 25.8151 72.0289 25.3548 72.0289C24.8946 72.0289 24.5215 71.6558 24.5215 71.1956V64.5287Z" fill="#504B8E"/>
<path d="M49.4706 53.8287H46.4391V42.1435L42.8203 43.2659V40.8009L49.1454 38.5352H49.4706V53.8287Z" fill="#D8E3FF"/>
<path fill-rule="evenodd" clip-rule="evenodd" d="M51.2599 53.8298C51.2599 54.8185 50.4584 55.62 49.4697 55.62H46.4383C45.4496 55.62 44.6481 54.8185 44.6481 53.8298V44.5741L43.3498 44.9768C42.8065 45.1453 42.2155 45.0456 41.7575 44.7082C41.2996 44.3708 41.0293 43.8358 41.0293 43.267V40.802C41.0293 40.046 41.5041 39.3716 42.2158 39.1167L48.5409 36.851C48.7346 36.7816 48.9388 36.7461 49.1446 36.7461H49.4697C50.4584 36.7461 51.2599 37.5476 51.2599 38.5363V53.8298ZM46.4383 42.1446V53.8298H49.4697V38.5363H49.1446L42.8195 40.802V43.267L46.4383 42.1446Z" fill="#D8E3FF"/>
<path d="M41.3248 48H39.4355L41.8894 40.7273H44.2296L46.6834 48H44.7942L43.0861 42.5597H43.0293L41.3248 48ZM41.0726 45.1378H45.0215V46.473H41.0726V45.1378ZM46.3203 42.1548V40.7273H52.4673V42.1548H50.2621V48H48.5291V42.1548H46.3203Z" fill="#504B8E"/>
</svg>
