<svg width="35" height="32" viewBox="0 0 35 32" fill="none" xmlns="http://www.w3.org/2000/svg">
<path d="M30.9996 14.3338C30.9996 21.6978 25.0299 27.6676 17.6658 27.6676C10.3018 27.6676 4.33203 21.6978 4.33203 14.3338C4.33203 6.96974 10.3018 1 17.6658 1C25.0299 1 30.9996 6.96974 30.9996 14.3338Z" fill="#D8E3FF"/>
<path fill-rule="evenodd" clip-rule="evenodd" d="M31.9867 14.3332C31.9867 22.2427 25.5748 28.6547 17.6652 28.6547C9.7557 28.6547 3.34375 22.2427 3.34375 14.3332C3.34375 6.42367 9.7557 0.0117188 17.6652 0.0117188C25.5748 0.0117188 31.9867 6.42367 31.9867 14.3332ZM17.6652 27.667C25.0293 27.667 30.999 21.6973 30.999 14.3332C30.999 6.96915 25.0293 0.999407 17.6652 0.999407C10.3012 0.999407 4.33144 6.96915 4.33144 14.3332C4.33144 21.6973 10.3012 27.667 17.6652 27.667Z" fill="#4B49AC"/>
<path fill-rule="evenodd" clip-rule="evenodd" d="M5.31825 14.8281C5.04551 14.8281 4.82441 14.607 4.82441 14.3343C4.82441 7.24297 10.573 1.49433 17.6644 1.49433C17.9371 1.49433 18.1582 1.71543 18.1582 1.98817C18.1582 2.26092 17.9371 2.48202 17.6644 2.48202C11.1185 2.48202 5.81209 7.78846 5.81209 14.3343C5.81209 14.607 5.59099 14.8281 5.31825 14.8281Z" fill="#8A9DF9"/>
<path fill-rule="evenodd" clip-rule="evenodd" d="M30.0118 13.8398C30.2846 13.8398 30.5057 14.0609 30.5057 14.3337C30.5057 21.425 24.757 27.1736 17.6657 27.1736C17.393 27.1736 17.1719 26.9525 17.1719 26.6798C17.1719 26.4071 17.393 26.1859 17.6657 26.1859C24.2115 26.1859 29.518 20.8795 29.518 14.3337C29.518 14.0609 29.7391 13.8398 30.0118 13.8398Z" fill="#8A9DF9"/>
<path d="M27.5428 14.3339C27.5428 19.7888 23.1208 24.2108 17.6659 24.2108C12.2111 24.2108 7.78906 19.7888 7.78906 14.3339C7.78906 8.87906 12.2111 4.45703 17.6659 4.45703C23.1208 4.45703 27.5428 8.87906 27.5428 14.3339Z" fill="#D8E3FF"/>
<path fill-rule="evenodd" clip-rule="evenodd" d="M28.5299 14.3333C28.5299 20.3337 23.6657 25.1979 17.6654 25.1979C11.665 25.1979 6.80078 20.3337 6.80078 14.3333C6.80078 8.33299 11.665 3.46875 17.6654 3.46875C23.6657 3.46875 28.5299 8.33299 28.5299 14.3333ZM17.6654 24.2102C23.1202 24.2102 27.5422 19.7882 27.5422 14.3333C27.5422 8.87847 23.1202 4.45644 17.6654 4.45644C12.2105 4.45644 7.78847 8.87847 7.78847 14.3333C7.78847 19.7882 12.2105 24.2102 17.6654 24.2102Z" fill="#4B49AC"/>
<path fill-rule="evenodd" clip-rule="evenodd" d="M17.6658 22.7272C22.3024 22.7272 26.0611 18.9684 26.0611 14.3318C26.0611 14.0591 26.2822 13.838 26.555 13.838C26.8277 13.838 27.0488 14.0591 27.0488 14.3318C27.0488 19.5139 22.8479 23.7148 17.6658 23.7148C17.393 23.7148 17.1719 23.4937 17.1719 23.221C17.1719 22.9483 17.393 22.7272 17.6658 22.7272Z" fill="#D8E3FF"/>
<path fill-rule="evenodd" clip-rule="evenodd" d="M17.6643 5.93691C13.0277 5.93691 9.26894 9.69563 9.26894 14.3323C9.26894 14.605 9.04784 14.8261 8.77509 14.8261C8.50235 14.8261 8.28125 14.605 8.28125 14.3323C8.28125 9.15015 12.4822 4.94922 17.6643 4.94922C17.937 4.94922 18.1581 5.17032 18.1581 5.44306C18.1581 5.71581 17.937 5.93691 17.6643 5.93691Z" fill="#D8E3FF"/>
<path d="M2.57417 27.4791L1.30213 24.9351C1.16361 24.658 1.36507 24.332 1.67482 24.332L7.25083 24.332C7.48096 24.332 7.66752 24.5186 7.66752 24.7487L7.66752 30.5822C7.66752 30.8124 7.48096 30.9989 7.25083 30.9989L1.67482 30.9989C1.36507 30.9989 1.16361 30.673 1.30213 30.3959L2.57417 27.8518C2.63282 27.7345 2.63282 27.5964 2.57417 27.4791Z" fill="#504B8E"/>
<path d="M32.7616 27.4791L34.0336 24.9351C34.1721 24.658 33.9707 24.332 33.6609 24.332L28.0849 24.332C27.8548 24.332 27.6682 24.5186 27.6682 24.7487L27.6682 30.5822C27.6682 30.8124 27.8548 30.9989 28.0849 30.9989L33.6609 30.9989C33.9707 30.9989 34.1721 30.673 34.0336 30.3959L32.7616 27.8518C32.7029 27.7345 32.7029 27.5964 32.7616 27.4791Z" fill="#504B8E"/>
<path fill-rule="evenodd" clip-rule="evenodd" d="M1.73516 27.6629L0.556299 25.3052C0.140724 24.474 0.745105 23.4961 1.67437 23.4961L7.25038 23.4961C7.94077 23.4961 8.50043 24.0558 8.50043 24.7461L8.50043 30.5797C8.50043 31.2701 7.94076 31.8297 7.25038 31.8297L1.67437 31.8297C0.745104 31.8297 0.140724 30.8518 0.556299 30.0206L1.73516 27.6629ZM1.8281 27.8488C1.82818 27.8489 1.82826 27.8491 1.82834 27.8493L2.20103 27.6629L1.82833 27.8492L1.8281 27.8488ZM33.5997 27.6629L34.7785 25.3052C35.1941 24.474 34.5897 23.4961 33.6605 23.4961L28.0844 23.4961C27.3941 23.4961 26.8344 24.0558 26.8344 24.7461L26.8344 30.5797C26.8344 31.2701 27.3941 31.8297 28.0844 31.8297L33.6605 31.8297C34.5897 31.8297 35.1941 30.8518 34.7785 30.0206L33.5997 27.6629ZM34.0331 24.9325L32.7611 27.4766C32.7025 27.5939 32.7025 27.7319 32.7611 27.8493L34.0331 30.3933C34.1717 30.6704 33.9702 30.9964 33.6605 30.9964L28.0844 30.9964C27.8543 30.9964 27.6678 30.8098 27.6678 30.5797L27.6678 24.7461C27.6678 24.516 27.8543 24.3295 28.0844 24.3295L33.6605 24.3295C33.9702 24.3295 34.1717 24.6554 34.0331 24.9325ZM1.30168 24.9325L2.57372 27.4766C2.63237 27.5939 2.63237 27.7319 2.57372 27.8492L1.30168 30.3933C1.16316 30.6704 1.36462 30.9964 1.67437 30.9964L7.25038 30.9964C7.48051 30.9964 7.66707 30.8098 7.66707 30.5797L7.66707 24.7461C7.66707 24.516 7.48051 24.3295 7.25038 24.3295L1.67437 24.3295C1.36462 24.3295 1.16316 24.6554 1.30168 24.9325Z" fill="#504B8E"/>
<path fill-rule="evenodd" clip-rule="evenodd" d="M1.89815 24.7062C1.97445 24.5852 2.10755 24.5117 2.25067 24.5117H4.02156C4.25169 24.5117 4.43824 24.6983 4.43824 24.9284C4.43824 25.1585 4.25169 25.3451 4.02156 25.3451H2.91183L3.77244 27.1445C3.87173 27.3521 3.78392 27.6009 3.57632 27.7002C3.36871 27.7995 3.11993 27.7117 3.02064 27.5041L1.87476 25.1082C1.81302 24.9791 1.82185 24.8273 1.89815 24.7062Z" fill="#504B8E"/>
<path d="M29.334 28.9143L29.334 23.0807C29.334 22.8506 29.1474 22.6641 28.9173 22.6641L6.41652 22.6641C6.1864 22.6641 5.99984 22.8506 5.99984 23.0807L5.99984 28.9143C5.99984 29.1444 6.18639 29.331 6.41652 29.331L28.9173 29.331C29.1474 29.331 29.334 29.1444 29.334 28.9143Z" fill="#504B8E"/>
<path fill-rule="evenodd" clip-rule="evenodd" d="M30.168 23.0821L30.168 28.9156C30.168 29.606 29.6083 30.1657 28.9179 30.1657L6.41714 30.1657C5.72676 30.1657 5.1671 29.606 5.1671 28.9156L5.1671 23.0821C5.1671 22.3917 5.72676 21.832 6.41714 21.832L28.9179 21.832C29.6083 21.832 30.168 22.3917 30.168 23.0821ZM29.3346 23.0821L29.3346 28.9156C29.3346 29.1457 29.1481 29.3323 28.9179 29.3323L6.41714 29.3323C6.18702 29.3323 6.00046 29.1457 6.00046 28.9156L6.00046 23.0821C6.00046 22.8519 6.18702 22.6654 6.41714 22.6654L28.9179 22.6654C29.1481 22.6654 29.3346 22.8519 29.3346 23.0821Z" fill="#504B8E"/>
<path d="M28.1841 26.1539C27.9482 26.1539 27.7569 25.9673 27.7569 25.7371C27.7569 25.5069 27.9482 25.3203 28.1841 25.3203C28.4201 25.3203 28.6113 25.5069 28.6113 25.7371C28.6113 25.9673 28.4201 26.1539 28.1841 26.1539Z" fill="#504B8E"/>
<path d="M26.5584 25.9901C26.2649 25.9901 26.027 25.7579 26.027 25.4716C26.027 25.1853 26.2649 24.9531 26.5584 24.9531C26.8519 24.9531 27.0898 25.1853 27.0898 25.4716C27.0898 25.7579 26.8519 25.9901 26.5584 25.9901Z" fill="#504B8E"/>
<path d="M27.2812 27.1747C27.1344 27.1747 27.0154 27.0587 27.0154 26.9155C27.0154 26.7723 27.1344 26.6562 27.2812 26.6562C27.4279 26.6562 27.5469 26.7723 27.5469 26.9155C27.5469 27.0587 27.4279 27.1747 27.2812 27.1747Z" fill="#504B8E"/>
<path d="M26.8241 24.4325C26.6774 24.4325 26.5584 24.3165 26.5584 24.1733C26.5584 24.0301 26.6774 23.9141 26.8241 23.9141C26.9709 23.9141 27.0898 24.0301 27.0898 24.1733C27.0898 24.3165 26.9709 24.4325 26.8241 24.4325Z" fill="#504B8E"/>
<path d="M25.4276 26.9169C25.2809 26.9169 25.1619 26.8008 25.1619 26.6577C25.1619 26.5145 25.2809 26.3984 25.4276 26.3984C25.5744 26.3984 25.6934 26.5145 25.6934 26.6577C25.6934 26.8008 25.5744 26.9169 25.4276 26.9169Z" fill="#504B8E"/>
<path d="M25.162 25.581C25.0153 25.581 24.8963 25.4649 24.8963 25.3217C24.8963 25.1786 25.0153 25.0625 25.162 25.0625C25.3088 25.0625 25.4277 25.1786 25.4277 25.3217C25.4277 25.4649 25.3088 25.581 25.162 25.581Z" fill="#504B8E"/>
<path d="M23.3495 28.5888C23.2028 28.5888 23.0838 28.4727 23.0838 28.3295C23.0838 28.1864 23.2028 28.0703 23.3495 28.0703C23.4963 28.0703 23.6152 28.1864 23.6152 28.3295C23.6152 28.4727 23.4963 28.5888 23.3495 28.5888Z" fill="#504B8E"/>
<path d="M28.6366 27.6005C28.4899 27.6005 28.3709 27.4844 28.3709 27.3413C28.3709 27.1981 28.4899 27.082 28.6366 27.082C28.7834 27.082 28.9023 27.1981 28.9023 27.3413C28.9023 27.4844 28.7834 27.6005 28.6366 27.6005Z" fill="#504B8E"/>
<path d="M26.1262 28.168C25.8873 28.168 25.6937 27.9791 25.6937 27.7461C25.6937 27.5131 25.8873 27.3242 26.1262 27.3242C26.365 27.3242 26.5586 27.5131 26.5586 27.7461C26.5586 27.9791 26.365 28.168 26.1262 28.168Z" fill="#504B8E"/>
<path d="M27.9797 28.5899C27.7408 28.5899 27.5472 28.401 27.5472 28.168C27.5472 27.935 27.7408 27.7461 27.9797 27.7461C28.2185 27.7461 28.4121 27.935 28.4121 28.168C28.4121 28.401 28.2185 28.5899 27.9797 28.5899Z" fill="#504B8E"/>
<path d="M24.1984 27.7578C23.9596 27.7578 23.766 27.569 23.766 27.336C23.766 27.1029 23.9596 26.9141 24.1984 26.9141C24.4373 26.9141 24.6309 27.1029 24.6309 27.336C24.6309 27.569 24.4373 27.7578 24.1984 27.7578Z" fill="#504B8E"/>
<path d="M24.8964 28.7177C24.7496 28.7177 24.6307 28.6016 24.6307 28.4585C24.6307 28.3153 24.7496 28.1992 24.8964 28.1992C25.0431 28.1992 25.1621 28.3153 25.1621 28.4585C25.1621 28.6016 25.0431 28.7177 24.8964 28.7177Z" fill="#504B8E"/>
<path fill-rule="evenodd" clip-rule="evenodd" d="M6.25977 23.2643C6.25977 23.0342 6.44632 22.8477 6.67645 22.8477H22.302C22.5321 22.8477 22.7187 23.0342 22.7187 23.2643C22.7187 23.4945 22.5321 23.681 22.302 23.681H7.09313V26.5978C7.09313 26.8279 6.90657 27.0145 6.67645 27.0145C6.44632 27.0145 6.25977 26.8279 6.25977 26.5978V23.2643Z" fill="#504B8E"/>
<path d="M18.7333 17.9124H17.2176V12.0698L15.4082 12.631V11.3985L18.5707 10.2656H18.7333V17.9124Z" fill="#D8E3FF"/>
<path fill-rule="evenodd" clip-rule="evenodd" d="M19.629 17.9129C19.629 18.4073 19.2282 18.808 18.7339 18.808H17.2182C16.7238 18.808 16.3231 18.4073 16.3231 17.9129V13.2851L15.6739 13.4865C15.4023 13.5707 15.1068 13.5208 14.8778 13.3521C14.6488 13.1834 14.5137 12.9159 14.5137 12.6315V11.399C14.5137 11.0211 14.7511 10.6838 15.1069 10.5564L18.2695 9.42353C18.3663 9.38883 18.4684 9.37109 18.5713 9.37109H18.7339C19.2282 9.37109 19.629 9.77184 19.629 10.2662V17.9129ZM17.2182 12.0704V17.9129H18.7339V10.2662H18.5713L15.4088 11.399V12.6315L17.2182 12.0704Z" fill="#D8E3FF"/>
<path d="M15.7251 20H13.8359L16.2898 12.7273H18.63L21.0838 20H19.1946L17.4865 14.5597H17.4297L15.7251 20ZM15.473 17.1378H19.4219V18.473H15.473V17.1378ZM13.9141 26.1548V24.7273H20.0611V26.1548H17.8558V32H16.1229V26.1548H13.9141Z" fill="#504B8E"/>
</svg>
