<svg width="64" height="64" viewBox="0 0 64 64" fill="none" xmlns="http://www.w3.org/2000/svg">
<g clip-path="url(#clip0_877_1929)">
<rect width="64" height="64" rx="15" fill="#51B56D"/>
<path d="M34.5938 32.5938H31.0312C26.6562 32.5938 23.2917 31.7083 20.9375 29.9375C18.5833 28.1458 17.4062 25.6875 17.4062 22.5625C17.4062 19.6458 18.7917 17.2188 21.5625 15.2812C24.3333 13.3229 28.2188 12.3438 33.2188 12.3438C36.5521 12.3438 39.6562 12.8021 42.5312 13.7188C45.4271 14.6354 47.8333 15.9271 49.75 17.5938L48 19C46.2917 17.6042 44.1458 16.5208 41.5625 15.75C38.9792 14.9792 36.1979 14.5938 33.2188 14.5938C28.8229 14.5938 25.4583 15.3438 23.125 16.8438C20.8125 18.3438 19.6562 20.25 19.6562 22.5625C19.6562 25.0625 20.6042 26.9896 22.5 28.3438C24.4167 29.6771 27.2604 30.3438 31.0312 30.3438H34.4688C38.9062 30.3438 42.3021 31.2396 44.6562 33.0312C47.0312 34.8021 48.2188 37.25 48.2188 40.375C48.2188 43.2917 46.8333 45.7292 44.0625 47.6875C41.2917 49.625 37.4062 50.5938 32.4062 50.5938C29.0729 50.5938 25.9583 50.1354 23.0625 49.2188C20.1875 48.3021 17.7917 47.0104 15.875 45.3438L17.625 43.9375C19.3333 45.3333 21.4792 46.4167 24.0625 47.1875C26.6458 47.9583 29.4271 48.3438 32.4062 48.3438C36.8021 48.3438 40.1562 47.5938 42.4688 46.0938C44.8021 44.5938 45.9688 42.6875 45.9688 40.375C45.9688 37.875 45.0104 35.9583 43.0938 34.625C41.1979 33.2708 38.3646 32.5938 34.5938 32.5938ZM34.5938 37.0938H31.0312C25.2396 37.0938 20.7708 35.7812 17.625 33.1562C14.4792 30.5104 12.9062 26.9792 12.9062 22.5625C12.9062 20.5417 13.3542 18.6458 14.25 16.875C15.1458 15.1042 16.4271 13.5521 18.0938 12.2188C19.7812 10.8646 21.9271 9.80208 24.5312 9.03125C27.1354 8.23958 30.0312 7.84375 33.2188 7.84375C37.2396 7.84375 41 8.45833 44.5 9.6875C48 10.8958 50.9167 12.5938 53.25 14.7812L51.4375 16.125C49.3125 14.2083 46.6562 12.7292 43.4688 11.6875C40.2812 10.625 36.8646 10.0938 33.2188 10.0938C27.5938 10.0938 23.1771 11.2812 19.9688 13.6562C16.7604 16.0312 15.1562 19 15.1562 22.5625C15.1562 26.3333 16.5312 29.3229 19.2812 31.5312C22.0312 33.7396 25.9479 34.8438 31.0312 34.8438H34.4688C40.6354 34.8438 43.7188 36.6875 43.7188 40.375C43.7188 42.0417 42.7708 43.4167 40.875 44.5C39 45.5625 36.1771 46.0938 32.4062 46.0938C29.7604 46.0938 27.3021 45.7917 25.0312 45.1875C22.7604 44.5625 20.8854 43.6771 19.4062 42.5312L21.1875 41.1562C23.7917 42.9479 27.5312 43.8438 32.4062 43.8438C35.5312 43.8438 37.8229 43.5208 39.2812 42.875C40.7396 42.2292 41.4688 41.3958 41.4688 40.375C41.4688 39.1875 40.9583 38.3438 39.9375 37.8438C38.9167 37.3438 37.1354 37.0938 34.5938 37.0938ZM34.5938 28.0938H31.0312C24.9479 28.0938 21.9062 26.25 21.9062 22.5625C21.9062 20.8958 22.8438 19.5312 24.7188 18.4688C26.6146 17.3854 29.4479 16.8438 33.2188 16.8438C35.8646 16.8438 38.3229 17.1562 40.5938 17.7812C42.8646 18.3854 44.7396 19.2604 46.2188 20.4062L44.4375 21.7812C41.8333 19.9896 38.0938 19.0938 33.2188 19.0938C30.0938 19.0938 27.8021 19.4167 26.3438 20.0625C24.8854 20.7083 24.1562 21.5417 24.1562 22.5625C24.1562 23.75 24.6667 24.5938 25.6875 25.0938C26.7083 25.5938 28.4896 25.8438 31.0312 25.8438H34.5938C40.3854 25.8438 44.8542 27.1667 48 29.8125C51.1458 32.4375 52.7188 35.9583 52.7188 40.375C52.7188 42.3958 52.2708 44.2917 51.375 46.0625C50.4792 47.8333 49.1875 49.3958 47.5 50.75C45.8333 52.0833 43.6979 53.1458 41.0938 53.9375C38.4896 54.7083 35.5938 55.0938 32.4062 55.0938C28.3854 55.0938 24.625 54.4896 21.125 53.2812C17.625 52.0521 14.7083 50.3438 12.375 48.1562L14.1875 46.8125C16.3125 48.7292 18.9688 50.2188 22.1562 51.2812C25.3438 52.3229 28.7604 52.8438 32.4062 52.8438C38.0312 52.8438 42.4479 51.6562 45.6562 49.2812C48.8646 46.9062 50.4688 43.9375 50.4688 40.375C50.4688 36.6042 49.0938 33.6146 46.3438 31.4062C43.5938 29.1979 39.6771 28.0938 34.5938 28.0938Z" fill="black"/>
</g>
<defs>
<clipPath id="clip0_877_1929">
<rect width="64" height="64" rx="15" fill="white"/>
</clipPath>
</defs>
</svg>
