<svg width="304" height="341" viewBox="0 0 304 341" fill="none" xmlns="http://www.w3.org/2000/svg">
<g clip-path="url(#clip0_1114_1826)">
<rect width="304" height="341" rx="24" fill="#030C30"/>
<rect x="27" y="61" width="250" height="92" rx="10.42" fill="white" fill-opacity="0.08"/>
<path d="M72.1836 91.7656C72.1836 92.8359 71.9961 93.7734 71.6211 94.5781C71.2539 95.375 70.7461 96.0391 70.0977 96.5703C69.457 97.1016 68.7031 97.5 67.8359 97.7656C66.9766 98.0312 66.0508 98.1641 65.0586 98.1641C64.6758 98.1641 64.2539 98.1133 63.793 98.0117C63.3398 97.9102 62.8789 97.7852 62.4102 97.6367C61.9414 97.4805 61.4883 97.3164 61.0508 97.1445C60.6211 96.9648 60.2383 96.7969 59.9023 96.6406L60.418 91.8125C61.082 92.2109 61.8164 92.5156 62.6211 92.7266C63.4336 92.9297 64.2305 93.0312 65.0117 93.0312C65.1602 93.0312 65.3398 93.0273 65.5508 93.0195C65.7617 93.0039 65.9609 92.9688 66.1484 92.9141C66.3438 92.8516 66.5078 92.7617 66.6406 92.6445C66.7734 92.5273 66.8398 92.3594 66.8398 92.1406C66.8398 91.9922 66.793 91.8672 66.6992 91.7656C66.6055 91.6562 66.4844 91.5703 66.3359 91.5078C66.1875 91.4375 66.0195 91.3867 65.832 91.3555C65.6445 91.3164 65.4609 91.2891 65.2812 91.2734C65.1016 91.2578 64.9336 91.25 64.7773 91.25C64.6211 91.25 64.4961 91.25 64.4023 91.25C63.7305 91.25 63.1172 91.1328 62.5625 90.8984C62.0156 90.6641 61.543 90.3398 61.1445 89.9258C60.7539 89.5039 60.4492 89.0078 60.2305 88.4375C60.0117 87.8594 59.9023 87.2344 59.9023 86.5625C59.9023 85.6406 60.0859 84.8164 60.4531 84.0898C60.8281 83.3555 61.3242 82.7344 61.9414 82.2266C62.5664 81.7109 63.2812 81.3164 64.0859 81.043C64.8906 80.7695 65.7227 80.6328 66.582 80.6328C66.9648 80.6328 67.3594 80.6484 67.7656 80.6797C68.1719 80.7031 68.5742 80.75 68.9727 80.8203C69.3789 80.8906 69.7734 80.9805 70.1562 81.0898C70.5391 81.1992 70.9023 81.3359 71.2461 81.5L70.8008 86.2578C70.2695 86.0781 69.7109 85.9297 69.125 85.8125C68.5469 85.6875 67.9805 85.625 67.4258 85.625C67.3242 85.625 67.1914 85.6289 67.0273 85.6367C66.8711 85.6367 66.7031 85.6484 66.5234 85.6719C66.3516 85.6875 66.1758 85.7148 65.9961 85.7539C65.8164 85.793 65.6562 85.8477 65.5156 85.918C65.375 85.9805 65.2617 86.0664 65.1758 86.1758C65.0898 86.2852 65.0508 86.4141 65.0586 86.5625C65.0664 86.7344 65.1289 86.875 65.2461 86.9844C65.3711 87.0859 65.5273 87.168 65.7148 87.2305C65.9102 87.2852 66.1211 87.3242 66.3477 87.3477C66.582 87.3711 66.8125 87.3867 67.0391 87.3945C67.2656 87.3945 67.4766 87.3945 67.6719 87.3945C67.8672 87.3867 68.0273 87.3906 68.1523 87.4062C68.7773 87.4453 69.3398 87.5781 69.8398 87.8047C70.3398 88.0312 70.7617 88.332 71.1055 88.707C71.457 89.082 71.7227 89.5312 71.9023 90.0547C72.0898 90.5703 72.1836 91.1406 72.1836 91.7656ZM85.0391 81.2422L84.9219 86.2109L81.4297 86.3516L80.5391 97.4609L75.5938 97.7188L75.6172 86.6094L72.125 86.7969L72.2656 81.2656L85.0391 81.2422ZM98.8438 96.9922L93.0312 97.7422L92.3281 95.0938H89.6562L89.0703 97.7422L83.0938 97.1562L87.7578 81.5469L94.2734 81.2188L98.8438 96.9922ZM91.9062 91.5078L91.0156 87.4297L90.1484 91.5078H91.9062ZM112.824 86.7031C112.824 87.3125 112.77 87.8672 112.66 88.3672C112.559 88.8594 112.395 89.3125 112.168 89.7266C111.941 90.1406 111.648 90.5234 111.289 90.875C110.93 91.2266 110.496 91.5625 109.988 91.8828L112.777 96.8516L107.504 97.8828L105.699 92.8906L104.246 92.9375L104.035 97.8125H98.9961C99.0352 96.0312 99.0703 94.2578 99.1016 92.4922C99.1406 90.7266 99.1836 88.9531 99.2305 87.1719C99.2461 86.2734 99.2617 85.3828 99.2773 84.5C99.293 83.6172 99.3242 82.7266 99.3711 81.8281C99.918 81.625 100.457 81.457 100.988 81.3242C101.52 81.1914 102.051 81.0898 102.582 81.0195C103.121 80.9414 103.664 80.8906 104.211 80.8672C104.766 80.8359 105.332 80.8203 105.91 80.8203C106.801 80.8203 107.66 80.9453 108.488 81.1953C109.324 81.4375 110.062 81.8047 110.703 82.2969C111.344 82.7891 111.855 83.4023 112.238 84.1367C112.629 84.8711 112.824 85.7266 112.824 86.7031ZM107.574 87.0781C107.574 86.75 107.527 86.4492 107.434 86.1758C107.348 85.9023 107.215 85.668 107.035 85.4727C106.863 85.2695 106.645 85.1133 106.379 85.0039C106.121 84.8867 105.816 84.8281 105.465 84.8281C105.309 84.8281 105.156 84.8398 105.008 84.8633C104.859 84.8789 104.715 84.9062 104.574 84.9453L104.387 89.3047H104.668C105.004 89.3047 105.344 89.2617 105.688 89.1758C106.039 89.0898 106.352 88.957 106.625 88.7773C106.906 88.5977 107.133 88.3672 107.305 88.0859C107.484 87.8047 107.574 87.4688 107.574 87.0781ZM131.984 87.1953C131.984 87.9531 131.871 88.625 131.645 89.2109C131.418 89.7969 131.105 90.3125 130.707 90.7578C130.316 91.1953 129.855 91.5664 129.324 91.8711C128.793 92.168 128.223 92.4141 127.613 92.6094C127.012 92.7969 126.387 92.9375 125.738 93.0312C125.09 93.1172 124.453 93.1641 123.828 93.1719V98.1641H118.367C118.367 97.2734 118.367 96.4062 118.367 95.5625C118.375 94.7188 118.379 93.8828 118.379 93.0547C118.387 92.2188 118.391 91.3789 118.391 90.5352C118.398 89.6914 118.406 88.8203 118.414 87.9219C118.43 86.9688 118.434 86.0156 118.426 85.0625C118.418 84.1094 118.438 83.1484 118.484 82.1797C119.484 81.8828 120.484 81.6602 121.484 81.5117C122.484 81.3633 123.516 81.2891 124.578 81.2891C125.18 81.2891 125.781 81.3398 126.383 81.4414C126.984 81.5352 127.559 81.6875 128.105 81.8984C128.66 82.1094 129.172 82.375 129.641 82.6953C130.117 83.0078 130.527 83.3828 130.871 83.8203C131.215 84.2578 131.484 84.7578 131.68 85.3203C131.883 85.8828 131.984 86.5078 131.984 87.1953ZM126.781 87.5938C126.781 87.0859 126.625 86.6914 126.312 86.4102C126.008 86.1211 125.609 85.9766 125.117 85.9766C124.953 85.9766 124.781 85.9922 124.602 86.0234C124.43 86.0469 124.266 86.0781 124.109 86.1172L123.969 89.5391C124.078 89.5547 124.184 89.5625 124.285 89.5625C124.387 89.5625 124.492 89.5625 124.602 89.5625C124.883 89.5625 125.152 89.5156 125.41 89.4219C125.676 89.3281 125.91 89.1953 126.113 89.0234C126.316 88.8438 126.477 88.6367 126.594 88.4023C126.719 88.1602 126.781 87.8906 126.781 87.5938ZM143.75 81.1016C143.703 81.8359 143.66 82.5625 143.621 83.2812C143.582 84 143.531 84.7266 143.469 85.4609L138.5 85.7188L138.383 87.1953H141.875L141.617 90.8281L138.102 90.9453L137.984 92.6562H140.891H142.953C142.906 93.5156 142.855 94.3711 142.801 95.2227C142.754 96.0664 142.711 96.9141 142.672 97.7656L132.57 98L132.945 81.1016H143.75ZM157.895 86.7031C157.895 87.3125 157.84 87.8672 157.73 88.3672C157.629 88.8594 157.465 89.3125 157.238 89.7266C157.012 90.1406 156.719 90.5234 156.359 90.875C156 91.2266 155.566 91.5625 155.059 91.8828L157.848 96.8516L152.574 97.8828L150.77 92.8906L149.316 92.9375L149.105 97.8125H144.066C144.105 96.0312 144.141 94.2578 144.172 92.4922C144.211 90.7266 144.254 88.9531 144.301 87.1719C144.316 86.2734 144.332 85.3828 144.348 84.5C144.363 83.6172 144.395 82.7266 144.441 81.8281C144.988 81.625 145.527 81.457 146.059 81.3242C146.59 81.1914 147.121 81.0898 147.652 81.0195C148.191 80.9414 148.734 80.8906 149.281 80.8672C149.836 80.8359 150.402 80.8203 150.98 80.8203C151.871 80.8203 152.73 80.9453 153.559 81.1953C154.395 81.4375 155.133 81.8047 155.773 82.2969C156.414 82.7891 156.926 83.4023 157.309 84.1367C157.699 84.8711 157.895 85.7266 157.895 86.7031ZM152.645 87.0781C152.645 86.75 152.598 86.4492 152.504 86.1758C152.418 85.9023 152.285 85.668 152.105 85.4727C151.934 85.2695 151.715 85.1133 151.449 85.0039C151.191 84.8867 150.887 84.8281 150.535 84.8281C150.379 84.8281 150.227 84.8398 150.078 84.8633C149.93 84.8789 149.785 84.9062 149.645 84.9453L149.457 89.3047H149.738C150.074 89.3047 150.414 89.2617 150.758 89.1758C151.109 89.0898 151.422 88.957 151.695 88.7773C151.977 88.5977 152.203 88.3672 152.375 88.0859C152.555 87.8047 152.645 87.4688 152.645 87.0781ZM169.812 81.1016C169.766 81.8359 169.723 82.5625 169.684 83.2812C169.645 84 169.594 84.7266 169.531 85.4609L164.562 85.7188V87.1953H168.875L168.641 90.8281L164.539 90.9453L164.562 97.8828L158.633 98L159.008 81.1016H169.812ZM184.59 89.7266C184.59 90.4375 184.508 91.125 184.344 91.7891C184.18 92.4453 183.941 93.0625 183.629 93.6406C183.324 94.2188 182.949 94.75 182.504 95.2344C182.066 95.7109 181.57 96.1211 181.016 96.4648C180.469 96.8086 179.871 97.0781 179.223 97.2734C178.574 97.4609 177.887 97.5547 177.16 97.5547C176.457 97.5547 175.785 97.4648 175.145 97.2852C174.512 97.1055 173.918 96.8555 173.363 96.5352C172.809 96.207 172.305 95.8164 171.852 95.3633C171.406 94.9023 171.023 94.3945 170.703 93.8398C170.391 93.2773 170.145 92.6758 169.965 92.0352C169.793 91.3945 169.707 90.7266 169.707 90.0312C169.707 89.3516 169.789 88.6875 169.953 88.0391C170.117 87.3828 170.352 86.7656 170.656 86.1875C170.969 85.6094 171.344 85.0781 171.781 84.5938C172.219 84.1094 172.707 83.6914 173.246 83.3398C173.793 82.9883 174.383 82.7148 175.016 82.5195C175.648 82.3242 176.316 82.2266 177.02 82.2266C178.152 82.2266 179.184 82.4023 180.113 82.7539C181.051 83.1055 181.848 83.6094 182.504 84.2656C183.168 84.9141 183.68 85.7031 184.039 86.6328C184.406 87.5547 184.59 88.5859 184.59 89.7266ZM179.387 90.0312C179.387 89.6953 179.336 89.3711 179.234 89.0586C179.141 88.7383 179 88.457 178.812 88.2148C178.625 87.9648 178.391 87.7656 178.109 87.6172C177.836 87.4609 177.52 87.3828 177.16 87.3828C176.793 87.3828 176.465 87.4492 176.176 87.582C175.887 87.7148 175.637 87.8984 175.426 88.1328C175.223 88.3594 175.066 88.6289 174.957 88.9414C174.848 89.2461 174.793 89.5703 174.793 89.9141C174.793 90.2422 174.84 90.5703 174.934 90.8984C175.027 91.2266 175.168 91.5234 175.355 91.7891C175.543 92.0547 175.773 92.2695 176.047 92.4336C176.328 92.5977 176.652 92.6797 177.02 92.6797C177.387 92.6797 177.715 92.6094 178.004 92.4688C178.301 92.3203 178.551 92.125 178.754 91.8828C178.957 91.6328 179.113 91.3477 179.223 91.0273C179.332 90.707 179.387 90.375 179.387 90.0312ZM199.145 86.7031C199.145 87.3125 199.09 87.8672 198.98 88.3672C198.879 88.8594 198.715 89.3125 198.488 89.7266C198.262 90.1406 197.969 90.5234 197.609 90.875C197.25 91.2266 196.816 91.5625 196.309 91.8828L199.098 96.8516L193.824 97.8828L192.02 92.8906L190.566 92.9375L190.355 97.8125H185.316C185.355 96.0312 185.391 94.2578 185.422 92.4922C185.461 90.7266 185.504 88.9531 185.551 87.1719C185.566 86.2734 185.582 85.3828 185.598 84.5C185.613 83.6172 185.645 82.7266 185.691 81.8281C186.238 81.625 186.777 81.457 187.309 81.3242C187.84 81.1914 188.371 81.0898 188.902 81.0195C189.441 80.9414 189.984 80.8906 190.531 80.8672C191.086 80.8359 191.652 80.8203 192.23 80.8203C193.121 80.8203 193.98 80.9453 194.809 81.1953C195.645 81.4375 196.383 81.8047 197.023 82.2969C197.664 82.7891 198.176 83.4023 198.559 84.1367C198.949 84.8711 199.145 85.7266 199.145 86.7031ZM193.895 87.0781C193.895 86.75 193.848 86.4492 193.754 86.1758C193.668 85.9023 193.535 85.668 193.355 85.4727C193.184 85.2695 192.965 85.1133 192.699 85.0039C192.441 84.8867 192.137 84.8281 191.785 84.8281C191.629 84.8281 191.477 84.8398 191.328 84.8633C191.18 84.8789 191.035 84.9062 190.895 84.9453L190.707 89.3047H190.988C191.324 89.3047 191.664 89.2617 192.008 89.1758C192.359 89.0898 192.672 88.957 192.945 88.7773C193.227 88.5977 193.453 88.3672 193.625 88.0859C193.805 87.8047 193.895 87.4688 193.895 87.0781ZM218.082 80.9141L217.004 98.1172L211.66 98.3516L211.707 89.2812L209.293 96.5938H207.23L205.379 90.0547L205.355 97.6484L199.941 97.8125L200.176 81.6172L206.199 81.3828L208.59 89.1406L211.777 80.9141H218.082ZM230.047 81.1016C230 81.8359 229.957 82.5625 229.918 83.2812C229.879 84 229.828 84.7266 229.766 85.4609L224.797 85.7188L224.68 87.1953H228.172L227.914 90.8281L224.398 90.9453L224.281 92.6562H227.188H229.25C229.203 93.5156 229.152 94.3711 229.098 95.2227C229.051 96.0664 229.008 96.9141 228.969 97.7656L218.867 98L219.242 81.1016H230.047ZM244.191 86.7031C244.191 87.3125 244.137 87.8672 244.027 88.3672C243.926 88.8594 243.762 89.3125 243.535 89.7266C243.309 90.1406 243.016 90.5234 242.656 90.875C242.297 91.2266 241.863 91.5625 241.355 91.8828L244.145 96.8516L238.871 97.8828L237.066 92.8906L235.613 92.9375L235.402 97.8125H230.363C230.402 96.0312 230.438 94.2578 230.469 92.4922C230.508 90.7266 230.551 88.9531 230.598 87.1719C230.613 86.2734 230.629 85.3828 230.645 84.5C230.66 83.6172 230.691 82.7266 230.738 81.8281C231.285 81.625 231.824 81.457 232.355 81.3242C232.887 81.1914 233.418 81.0898 233.949 81.0195C234.488 80.9414 235.031 80.8906 235.578 80.8672C236.133 80.8359 236.699 80.8203 237.277 80.8203C238.168 80.8203 239.027 80.9453 239.855 81.1953C240.691 81.4375 241.43 81.8047 242.07 82.2969C242.711 82.7891 243.223 83.4023 243.605 84.1367C243.996 84.8711 244.191 85.7266 244.191 86.7031ZM238.941 87.0781C238.941 86.75 238.895 86.4492 238.801 86.1758C238.715 85.9023 238.582 85.668 238.402 85.4727C238.23 85.2695 238.012 85.1133 237.746 85.0039C237.488 84.8867 237.184 84.8281 236.832 84.8281C236.676 84.8281 236.523 84.8398 236.375 84.8633C236.227 84.8789 236.082 84.9062 235.941 84.9453L235.754 89.3047H236.035C236.371 89.3047 236.711 89.2617 237.055 89.1758C237.406 89.0898 237.719 88.957 237.992 88.7773C238.273 88.5977 238.5 88.3672 238.672 88.0859C238.852 87.8047 238.941 87.4688 238.941 87.0781Z" fill="white"/>
<path d="M112.234 116.762L111.336 131.098L106.883 131.293L106.922 123.734L104.91 129.828H103.191L101.648 124.379L101.629 130.707L97.1172 130.844L97.3125 117.348L102.332 117.152L104.324 123.617L106.98 116.762H112.234ZM125.096 130.16L120.252 130.785L119.666 128.578H117.439L116.951 130.785L111.971 130.297L115.857 117.289L121.287 117.016L125.096 130.16ZM119.314 125.59L118.572 122.191L117.85 125.59H119.314ZM136.746 121.586C136.746 122.094 136.701 122.556 136.609 122.973C136.525 123.383 136.388 123.76 136.199 124.105C136.01 124.451 135.766 124.77 135.467 125.062C135.167 125.355 134.806 125.635 134.383 125.902L136.707 130.043L132.312 130.902L130.809 126.742L129.598 126.781L129.422 130.844H125.223C125.255 129.359 125.285 127.882 125.311 126.41C125.343 124.939 125.379 123.461 125.418 121.977C125.431 121.228 125.444 120.486 125.457 119.75C125.47 119.014 125.496 118.272 125.535 117.523C125.991 117.354 126.44 117.214 126.883 117.104C127.326 116.993 127.768 116.908 128.211 116.85C128.66 116.785 129.113 116.742 129.568 116.723C130.031 116.697 130.503 116.684 130.984 116.684C131.727 116.684 132.443 116.788 133.133 116.996C133.829 117.198 134.445 117.504 134.979 117.914C135.512 118.324 135.939 118.835 136.258 119.447C136.583 120.059 136.746 120.772 136.746 121.586ZM132.371 121.898C132.371 121.625 132.332 121.374 132.254 121.146C132.182 120.919 132.072 120.723 131.922 120.561C131.779 120.391 131.596 120.261 131.375 120.17C131.16 120.072 130.906 120.023 130.613 120.023C130.483 120.023 130.356 120.033 130.232 120.053C130.109 120.066 129.988 120.089 129.871 120.121L129.715 123.754H129.949C130.229 123.754 130.512 123.718 130.799 123.646C131.092 123.575 131.352 123.464 131.58 123.314C131.814 123.165 132.003 122.973 132.146 122.738C132.296 122.504 132.371 122.224 132.371 121.898ZM146.99 117.27L146.443 121.391C146.255 121.339 146.066 121.303 145.877 121.283C145.688 121.264 145.499 121.254 145.311 121.254C144.829 121.254 144.37 121.319 143.934 121.449C143.497 121.573 143.11 121.765 142.771 122.025C142.439 122.286 142.173 122.611 141.971 123.002C141.775 123.393 141.678 123.852 141.678 124.379C141.678 124.717 141.73 125.01 141.834 125.258C141.945 125.505 142.098 125.71 142.293 125.873C142.488 126.036 142.719 126.156 142.986 126.234C143.253 126.312 143.546 126.352 143.865 126.352C144.106 126.352 144.357 126.326 144.617 126.273C144.878 126.221 145.135 126.153 145.389 126.068C145.643 125.984 145.89 125.886 146.131 125.775C146.372 125.665 146.593 125.551 146.795 125.434L146.404 130.023C146.15 130.154 145.874 130.271 145.574 130.375C145.281 130.473 144.979 130.561 144.666 130.639C144.354 130.71 144.041 130.766 143.729 130.805C143.416 130.844 143.117 130.863 142.83 130.863C142.003 130.863 141.232 130.71 140.516 130.404C139.799 130.098 139.178 129.678 138.65 129.145C138.123 128.611 137.706 127.982 137.4 127.26C137.101 126.531 136.951 125.746 136.951 124.906C136.951 123.793 137.111 122.745 137.43 121.762C137.749 120.772 138.217 119.906 138.836 119.164C139.454 118.422 140.219 117.836 141.131 117.406C142.049 116.977 143.104 116.762 144.295 116.762C144.744 116.762 145.203 116.798 145.672 116.869C146.147 116.941 146.587 117.074 146.99 117.27ZM159.197 131L154.314 131.234L154.275 126.723H152.029L151.893 131H147.518L147.889 117.27L152.537 117.484L152.244 124.496H154.412L154.432 116.957L158.885 117.074L159.197 131ZM177.283 121.801C177.283 122.322 177.189 122.82 177 123.295C176.811 123.764 176.561 124.206 176.248 124.623C175.942 125.033 175.59 125.414 175.193 125.766C174.803 126.111 174.406 126.423 174.002 126.703H177.088L176.854 130.766L167.713 130.453V126.898C168.058 126.781 168.419 126.641 168.797 126.479C169.181 126.309 169.555 126.117 169.92 125.902C170.291 125.688 170.639 125.447 170.965 125.18C171.297 124.913 171.587 124.623 171.834 124.311C172.088 123.992 172.286 123.646 172.43 123.275C172.579 122.904 172.654 122.504 172.654 122.074C172.654 121.827 172.609 121.609 172.518 121.42C172.433 121.231 172.312 121.075 172.156 120.951C172 120.821 171.818 120.727 171.609 120.668C171.408 120.603 171.189 120.57 170.955 120.57C170.76 120.57 170.561 120.593 170.359 120.639C170.158 120.678 169.959 120.736 169.764 120.814C169.568 120.893 169.383 120.99 169.207 121.107C169.038 121.218 168.885 121.345 168.748 121.488L167.889 117.66C168.13 117.419 168.406 117.217 168.719 117.055C169.031 116.892 169.36 116.762 169.705 116.664C170.05 116.56 170.402 116.485 170.76 116.439C171.118 116.394 171.469 116.371 171.814 116.371C172.583 116.371 173.299 116.511 173.963 116.791C174.627 117.064 175.203 117.445 175.691 117.934C176.186 118.415 176.574 118.988 176.854 119.652C177.14 120.316 177.283 121.033 177.283 121.801ZM190.008 124.008C190.008 124.581 189.943 125.15 189.812 125.717C189.689 126.283 189.507 126.827 189.266 127.348C189.025 127.868 188.729 128.354 188.377 128.803C188.032 129.252 187.635 129.643 187.186 129.975C186.736 130.307 186.242 130.567 185.701 130.756C185.167 130.945 184.591 131.039 183.973 131.039C183.348 131.039 182.765 130.945 182.225 130.756C181.684 130.567 181.189 130.307 180.74 129.975C180.298 129.643 179.9 129.252 179.549 128.803C179.197 128.354 178.901 127.868 178.66 127.348C178.419 126.827 178.234 126.283 178.104 125.717C177.98 125.144 177.918 124.574 177.918 124.008C177.918 123.441 177.98 122.872 178.104 122.299C178.234 121.726 178.419 121.179 178.66 120.658C178.901 120.137 179.197 119.652 179.549 119.203C179.9 118.747 180.298 118.354 180.74 118.021C181.189 117.689 181.684 117.429 182.225 117.24C182.771 117.051 183.354 116.957 183.973 116.957C184.591 116.957 185.167 117.051 185.701 117.24C186.242 117.429 186.736 117.689 187.186 118.021C187.635 118.354 188.032 118.747 188.377 119.203C188.729 119.652 189.025 120.137 189.266 120.658C189.507 121.179 189.689 121.726 189.812 122.299C189.943 122.872 190.008 123.441 190.008 124.008ZM185.887 124.301C185.887 124.014 185.848 123.695 185.77 123.344C185.691 122.992 185.571 122.663 185.408 122.357C185.245 122.051 185.037 121.794 184.783 121.586C184.529 121.378 184.227 121.273 183.875 121.273C183.517 121.273 183.211 121.378 182.957 121.586C182.703 121.794 182.492 122.051 182.322 122.357C182.16 122.663 182.039 122.992 181.961 123.344C181.883 123.695 181.844 124.014 181.844 124.301C181.844 124.587 181.883 124.906 181.961 125.258C182.039 125.609 182.16 125.938 182.322 126.244C182.492 126.55 182.703 126.807 182.957 127.016C183.211 127.224 183.517 127.328 183.875 127.328C184.227 127.328 184.529 127.224 184.783 127.016C185.037 126.807 185.245 126.55 185.408 126.244C185.571 125.938 185.691 125.609 185.77 125.258C185.848 124.906 185.887 124.587 185.887 124.301ZM200.135 121.801C200.135 122.322 200.04 122.82 199.852 123.295C199.663 123.764 199.412 124.206 199.1 124.623C198.794 125.033 198.442 125.414 198.045 125.766C197.654 126.111 197.257 126.423 196.854 126.703H199.939L199.705 130.766L190.564 130.453V126.898C190.91 126.781 191.271 126.641 191.648 126.479C192.033 126.309 192.407 126.117 192.771 125.902C193.143 125.688 193.491 125.447 193.816 125.18C194.148 124.913 194.438 124.623 194.686 124.311C194.939 123.992 195.138 123.646 195.281 123.275C195.431 122.904 195.506 122.504 195.506 122.074C195.506 121.827 195.46 121.609 195.369 121.42C195.285 121.231 195.164 121.075 195.008 120.951C194.852 120.821 194.669 120.727 194.461 120.668C194.259 120.603 194.041 120.57 193.807 120.57C193.611 120.57 193.413 120.593 193.211 120.639C193.009 120.678 192.811 120.736 192.615 120.814C192.42 120.893 192.234 120.99 192.059 121.107C191.889 121.218 191.736 121.345 191.6 121.488L190.74 117.66C190.981 117.419 191.258 117.217 191.57 117.055C191.883 116.892 192.212 116.762 192.557 116.664C192.902 116.56 193.253 116.485 193.611 116.439C193.969 116.394 194.321 116.371 194.666 116.371C195.434 116.371 196.15 116.511 196.814 116.791C197.479 117.064 198.055 117.445 198.543 117.934C199.038 118.415 199.425 118.988 199.705 119.652C199.992 120.316 200.135 121.033 200.135 121.801ZM210.916 126.312L210.057 126.332L209.881 130.551L205.467 130.941L205.701 126.43L200.486 126.547L201.932 117.973H205.623L204.549 123.949L205.838 123.91L206.209 116.508H210.447L210.154 123.754L210.916 123.715V126.312Z" fill="white"/>
<path d="M39.3828 232.047L38.0703 241.938C37.6172 241.812 37.1641 241.727 36.7109 241.68C36.2578 241.633 35.8047 241.609 35.3516 241.609C34.1953 241.609 33.0938 241.766 32.0469 242.078C31 242.375 30.0703 242.836 29.2578 243.461C28.4609 244.086 27.8203 244.867 27.3359 245.805C26.8672 246.742 26.6328 247.844 26.6328 249.109C26.6328 249.922 26.7578 250.625 27.0078 251.219C27.2734 251.812 27.6406 252.305 28.1094 252.695C28.5781 253.086 29.1328 253.375 29.7734 253.562C30.4141 253.75 31.1172 253.844 31.8828 253.844C32.4609 253.844 33.0625 253.781 33.6875 253.656C34.3125 253.531 34.9297 253.367 35.5391 253.164C36.1484 252.961 36.7422 252.727 37.3203 252.461C37.8984 252.195 38.4297 251.922 38.9141 251.641L37.9766 262.656C37.3672 262.969 36.7031 263.25 35.9844 263.5C35.2812 263.734 34.5547 263.945 33.8047 264.133C33.0547 264.305 32.3047 264.438 31.5547 264.531C30.8047 264.625 30.0859 264.672 29.3984 264.672C27.4141 264.672 25.5625 264.305 23.8438 263.57C22.125 262.836 20.6328 261.828 19.3672 260.547C18.1016 259.266 17.1016 257.758 16.3672 256.023C15.6484 254.273 15.2891 252.391 15.2891 250.375C15.2891 247.703 15.6719 245.188 16.4375 242.828C17.2031 240.453 18.3281 238.375 19.8125 236.594C21.2969 234.812 23.1328 233.406 25.3203 232.375C27.5234 231.344 30.0547 230.828 32.9141 230.828C33.9922 230.828 35.0938 230.914 36.2188 231.086C37.3594 231.258 38.4141 231.578 39.3828 232.047ZM69.5469 248.453C69.5469 249.875 69.3828 251.25 69.0547 252.578C68.7266 253.891 68.25 255.125 67.625 256.281C67.0156 257.438 66.2656 258.5 65.375 259.469C64.5 260.422 63.5078 261.242 62.3984 261.93C61.3047 262.617 60.1094 263.156 58.8125 263.547C57.5156 263.922 56.1406 264.109 54.6875 264.109C53.2812 264.109 51.9375 263.93 50.6562 263.57C49.3906 263.211 48.2031 262.711 47.0938 262.07C45.9844 261.414 44.9766 260.633 44.0703 259.727C43.1797 258.805 42.4141 257.789 41.7734 256.68C41.1484 255.555 40.6562 254.352 40.2969 253.07C39.9531 251.789 39.7812 250.453 39.7812 249.062C39.7812 247.703 39.9453 246.375 40.2734 245.078C40.6016 243.766 41.0703 242.531 41.6797 241.375C42.3047 240.219 43.0547 239.156 43.9297 238.188C44.8047 237.219 45.7812 236.383 46.8594 235.68C47.9531 234.977 49.1328 234.43 50.3984 234.039C51.6641 233.648 53 233.453 54.4062 233.453C56.6719 233.453 58.7344 233.805 60.5938 234.508C62.4688 235.211 64.0625 236.219 65.375 237.531C66.7031 238.828 67.7266 240.406 68.4453 242.266C69.1797 244.109 69.5469 246.172 69.5469 248.453ZM59.1406 249.062C59.1406 248.391 59.0391 247.742 58.8359 247.117C58.6484 246.477 58.3672 245.914 57.9922 245.43C57.6172 244.93 57.1484 244.531 56.5859 244.234C56.0391 243.922 55.4062 243.766 54.6875 243.766C53.9531 243.766 53.2969 243.898 52.7188 244.164C52.1406 244.43 51.6406 244.797 51.2188 245.266C50.8125 245.719 50.5 246.258 50.2812 246.883C50.0625 247.492 49.9531 248.141 49.9531 248.828C49.9531 249.484 50.0469 250.141 50.2344 250.797C50.4219 251.453 50.7031 252.047 51.0781 252.578C51.4531 253.109 51.9141 253.539 52.4609 253.867C53.0234 254.195 53.6719 254.359 54.4062 254.359C55.1406 254.359 55.7969 254.219 56.375 253.938C56.9688 253.641 57.4688 253.25 57.875 252.766C58.2812 252.266 58.5938 251.695 58.8125 251.055C59.0312 250.414 59.1406 249.75 59.1406 249.062ZM91.7891 251.641L90.8047 262.047L71.0703 263.594C71.1641 258.141 71.2656 252.719 71.375 247.328C71.5 241.938 71.6484 236.516 71.8203 231.062H84.0078C83.6484 234.484 83.3047 237.906 82.9766 241.328C82.6484 244.734 82.4141 248.172 82.2734 251.641C83.0078 251.672 83.7344 251.688 84.4531 251.688C85.1719 251.688 85.8984 251.688 86.6328 251.688C87.5078 251.688 88.3672 251.68 89.2109 251.664C90.0547 251.648 90.9141 251.641 91.7891 251.641ZM115.086 231.203C114.992 232.672 114.906 234.125 114.828 235.562C114.75 237 114.648 238.453 114.523 239.922L104.586 240.438L104.352 243.391H111.336L110.82 250.656L103.789 250.891L103.555 254.312H109.367H113.492C113.398 256.031 113.297 257.742 113.188 259.445C113.094 261.133 113.008 262.828 112.93 264.531L92.7266 265L93.4766 231.203H115.086ZM152.586 242.453C152.586 243.969 152.359 245.312 151.906 246.484C151.453 247.656 150.828 248.68 150.031 249.555C149.25 250.43 148.328 251.172 147.266 251.781C146.203 252.391 145.062 252.891 143.844 253.281C142.641 253.656 141.391 253.938 140.094 254.125C138.797 254.297 137.523 254.391 136.273 254.406V265.328H125.352C125.352 261.75 125.359 258.188 125.375 254.641C125.391 251.094 125.414 247.516 125.445 243.906C125.477 242 125.484 240.094 125.469 238.188C125.453 236.281 125.492 234.359 125.586 232.422C127.586 231.828 129.586 231.383 131.586 231.086C133.586 230.789 135.648 230.641 137.773 230.641C138.977 230.641 140.18 230.742 141.383 230.945C142.586 231.133 143.734 231.438 144.828 231.859C145.938 232.281 146.961 232.812 147.898 233.453C148.852 234.078 149.672 234.828 150.359 235.703C151.047 236.578 151.586 237.578 151.977 238.703C152.383 239.812 152.586 241.062 152.586 242.453ZM142.18 243.25C142.18 242.234 141.867 241.445 141.242 240.883C140.633 240.305 139.836 240.016 138.852 240.016C138.523 240.016 138.18 240.047 137.82 240.109C137.477 240.156 137.148 240.219 136.836 240.297L136.555 247.141C136.773 247.172 136.984 247.188 137.188 247.188C137.391 247.188 137.602 247.188 137.82 247.188C138.383 247.188 138.922 247.094 139.438 246.906C139.969 246.719 140.438 246.453 140.844 246.109C141.25 245.75 141.57 245.336 141.805 244.867C142.055 244.383 142.18 243.844 142.18 243.25ZM180.945 262.984L169.32 264.484L167.914 259.188H162.57L161.398 264.484L149.445 263.312L158.773 232.094L171.805 231.438L180.945 262.984ZM167.07 252.016L165.289 243.859L163.555 252.016H167.07ZM202.039 251.641L201.055 262.047L181.32 263.594C181.414 258.141 181.516 252.719 181.625 247.328C181.75 241.938 181.898 236.516 182.07 231.062H194.258C193.898 234.484 193.555 237.906 193.227 241.328C192.898 244.734 192.664 248.172 192.523 251.641C193.258 251.672 193.984 251.688 194.703 251.688C195.422 251.688 196.148 251.688 196.883 251.688C197.758 251.688 198.617 251.68 199.461 251.664C200.305 251.648 201.164 251.641 202.039 251.641ZM239.375 230.828L237.219 265.234L226.531 265.703L226.625 247.562L221.797 262.188H217.672L213.969 249.109L213.922 264.297L203.094 264.625L203.562 232.234L215.609 231.766L220.391 247.281L226.766 230.828H239.375ZM263.305 231.203C263.211 232.672 263.125 234.125 263.047 235.562C262.969 237 262.867 238.453 262.742 239.922L252.805 240.438L252.57 243.391H259.555L259.039 250.656L252.008 250.891L251.773 254.312H257.586H261.711C261.617 256.031 261.516 257.742 261.406 259.445C261.312 261.133 261.227 262.828 261.148 264.531L240.945 265L241.695 231.203H263.305ZM291.594 242.406C291.594 243.625 291.484 244.734 291.266 245.734C291.062 246.719 290.734 247.625 290.281 248.453C289.828 249.281 289.242 250.047 288.523 250.75C287.805 251.453 286.938 252.125 285.922 252.766L291.5 262.703L280.953 264.766L277.344 254.781L274.438 254.875L274.016 264.625H263.938C264.016 261.062 264.086 257.516 264.148 253.984C264.227 250.453 264.312 246.906 264.406 243.344C264.438 241.547 264.469 239.766 264.5 238C264.531 236.234 264.594 234.453 264.688 232.656C265.781 232.25 266.859 231.914 267.922 231.648C268.984 231.383 270.047 231.18 271.109 231.039C272.188 230.883 273.273 230.781 274.367 230.734C275.477 230.672 276.609 230.641 277.766 230.641C279.547 230.641 281.266 230.891 282.922 231.391C284.594 231.875 286.07 232.609 287.352 233.594C288.633 234.578 289.656 235.805 290.422 237.273C291.203 238.742 291.594 240.453 291.594 242.406ZM281.094 243.156C281.094 242.5 281 241.898 280.812 241.352C280.641 240.805 280.375 240.336 280.016 239.945C279.672 239.539 279.234 239.227 278.703 239.008C278.188 238.773 277.578 238.656 276.875 238.656C276.562 238.656 276.258 238.68 275.961 238.727C275.664 238.758 275.375 238.812 275.094 238.891L274.719 247.609H275.281C275.953 247.609 276.633 247.523 277.32 247.352C278.023 247.18 278.648 246.914 279.195 246.555C279.758 246.195 280.211 245.734 280.555 245.172C280.914 244.609 281.094 243.938 281.094 243.156Z" fill="white"/>
<rect x="106" y="291" width="95" height="32" rx="16" fill="#22C55E" fill-opacity="0.2"/>
<path d="M128.32 306.797C128.32 307.526 128.227 308.185 128.039 308.773C127.852 309.357 127.589 309.878 127.25 310.336C126.917 310.789 126.518 311.18 126.055 311.508C125.591 311.836 125.083 312.107 124.531 312.32C123.979 312.529 123.391 312.685 122.766 312.789C122.146 312.888 121.508 312.938 120.852 312.938C120.607 312.938 120.367 312.932 120.133 312.922C119.898 312.906 119.659 312.885 119.414 312.859L119.633 302.375C120.206 302.193 120.794 302.065 121.398 301.992C122.008 301.914 122.612 301.875 123.211 301.875C123.956 301.875 124.641 301.987 125.266 302.211C125.891 302.435 126.43 302.758 126.883 303.18C127.336 303.602 127.688 304.117 127.938 304.727C128.193 305.336 128.32 306.026 128.32 306.797ZM125.117 307.297C125.122 307.016 125.091 306.745 125.023 306.484C124.961 306.224 124.854 305.995 124.703 305.797C124.557 305.594 124.37 305.432 124.141 305.312C123.911 305.188 123.638 305.12 123.32 305.109L123.008 309.953C123.32 309.906 123.604 309.805 123.859 309.648C124.115 309.487 124.333 309.292 124.516 309.062C124.703 308.828 124.846 308.57 124.945 308.289C125.049 308.003 125.107 307.708 125.117 307.406V307.297ZM136.195 301.734C136.164 302.224 136.135 302.708 136.109 303.188C136.083 303.667 136.049 304.151 136.008 304.641L132.695 304.812L132.617 305.797H134.945L134.773 308.219L132.43 308.297L132.352 309.438H134.289H135.664C135.633 310.01 135.599 310.581 135.562 311.148C135.531 311.711 135.503 312.276 135.477 312.844L128.742 313L128.992 301.734H136.195ZM144.469 308.844C144.469 309.557 144.344 310.182 144.094 310.719C143.849 311.25 143.51 311.693 143.078 312.047C142.651 312.401 142.148 312.667 141.57 312.844C140.997 313.021 140.38 313.109 139.719 313.109C139.464 313.109 139.182 313.076 138.875 313.008C138.573 312.94 138.266 312.857 137.953 312.758C137.641 312.654 137.339 312.544 137.047 312.43C136.76 312.31 136.505 312.198 136.281 312.094L136.625 308.875C137.068 309.141 137.557 309.344 138.094 309.484C138.635 309.62 139.167 309.688 139.688 309.688C139.786 309.688 139.906 309.685 140.047 309.68C140.188 309.669 140.32 309.646 140.445 309.609C140.576 309.568 140.685 309.508 140.773 309.43C140.862 309.352 140.906 309.24 140.906 309.094C140.906 308.995 140.875 308.911 140.812 308.844C140.75 308.771 140.669 308.714 140.57 308.672C140.471 308.625 140.359 308.591 140.234 308.57C140.109 308.544 139.987 308.526 139.867 308.516C139.747 308.505 139.635 308.5 139.531 308.5C139.427 308.5 139.344 308.5 139.281 308.5C138.833 308.5 138.424 308.422 138.055 308.266C137.69 308.109 137.375 307.893 137.109 307.617C136.849 307.336 136.646 307.005 136.5 306.625C136.354 306.24 136.281 305.823 136.281 305.375C136.281 304.76 136.404 304.211 136.648 303.727C136.898 303.237 137.229 302.823 137.641 302.484C138.057 302.141 138.534 301.878 139.07 301.695C139.607 301.513 140.161 301.422 140.734 301.422C140.99 301.422 141.253 301.432 141.523 301.453C141.794 301.469 142.062 301.5 142.328 301.547C142.599 301.594 142.862 301.654 143.117 301.727C143.372 301.799 143.615 301.891 143.844 302L143.547 305.172C143.193 305.052 142.82 304.953 142.43 304.875C142.044 304.792 141.667 304.75 141.297 304.75C141.229 304.75 141.141 304.753 141.031 304.758C140.927 304.758 140.815 304.766 140.695 304.781C140.581 304.792 140.464 304.81 140.344 304.836C140.224 304.862 140.117 304.898 140.023 304.945C139.93 304.987 139.854 305.044 139.797 305.117C139.74 305.19 139.714 305.276 139.719 305.375C139.724 305.49 139.766 305.583 139.844 305.656C139.927 305.724 140.031 305.779 140.156 305.82C140.286 305.857 140.427 305.883 140.578 305.898C140.734 305.914 140.888 305.924 141.039 305.93C141.19 305.93 141.331 305.93 141.461 305.93C141.591 305.924 141.698 305.927 141.781 305.938C142.198 305.964 142.573 306.052 142.906 306.203C143.24 306.354 143.521 306.555 143.75 306.805C143.984 307.055 144.161 307.354 144.281 307.703C144.406 308.047 144.469 308.427 144.469 308.844ZM149.188 302L148.328 312.641L145.031 312.812V302.219L149.188 302ZM159.086 311.406C158.841 311.714 158.539 311.982 158.18 312.211C157.82 312.44 157.435 312.63 157.023 312.781C156.612 312.932 156.19 313.044 155.758 313.117C155.326 313.195 154.914 313.234 154.523 313.234C153.768 313.234 153.073 313.099 152.438 312.828C151.802 312.557 151.253 312.185 150.789 311.711C150.331 311.232 149.971 310.669 149.711 310.023C149.451 309.378 149.32 308.682 149.32 307.938C149.32 307.37 149.385 306.815 149.516 306.273C149.646 305.727 149.831 305.214 150.07 304.734C150.315 304.25 150.612 303.807 150.961 303.406C151.31 303 151.706 302.651 152.148 302.359C152.591 302.068 153.076 301.841 153.602 301.68C154.128 301.518 154.69 301.438 155.289 301.438C155.513 301.438 155.753 301.448 156.008 301.469C156.263 301.484 156.516 301.516 156.766 301.562C157.021 301.604 157.268 301.664 157.508 301.742C157.747 301.82 157.966 301.917 158.164 302.031L157.945 305.016C157.654 304.906 157.352 304.833 157.039 304.797C156.732 304.755 156.43 304.734 156.133 304.734C155.716 304.734 155.326 304.799 154.961 304.93C154.602 305.055 154.286 305.237 154.016 305.477C153.75 305.716 153.539 306.008 153.383 306.352C153.227 306.695 153.148 307.083 153.148 307.516C153.148 307.786 153.185 308.049 153.258 308.305C153.331 308.555 153.44 308.779 153.586 308.977C153.737 309.169 153.922 309.326 154.141 309.445C154.365 309.565 154.622 309.625 154.914 309.625C155.112 309.625 155.315 309.599 155.523 309.547C155.737 309.495 155.919 309.406 156.07 309.281L156.102 308.672L154.227 308.641L154.32 306.297C155.096 306.271 155.872 306.25 156.648 306.234C157.424 306.214 158.206 306.188 158.992 306.156L159.086 311.406ZM170.312 301.797L169.75 312.391L165.656 312.766L163.469 307.094L163.125 312.875H159.609L159.891 301.797L163.797 301.609L166.5 307.234L166.625 301.922L170.312 301.797ZM178.352 301.734C178.32 302.224 178.292 302.708 178.266 303.188C178.24 303.667 178.206 304.151 178.164 304.641L174.852 304.812L174.773 305.797H177.102L176.93 308.219L174.586 308.297L174.508 309.438H176.445H177.82C177.789 310.01 177.755 310.581 177.719 311.148C177.688 311.711 177.659 312.276 177.633 312.844L170.898 313L171.148 301.734H178.352ZM187.781 305.469C187.781 305.875 187.745 306.245 187.672 306.578C187.604 306.906 187.495 307.208 187.344 307.484C187.193 307.76 186.997 308.016 186.758 308.25C186.518 308.484 186.229 308.708 185.891 308.922L187.75 312.234L184.234 312.922L183.031 309.594L182.062 309.625L181.922 312.875H178.562C178.589 311.688 178.612 310.505 178.633 309.328C178.659 308.151 178.688 306.969 178.719 305.781C178.729 305.182 178.74 304.589 178.75 304C178.76 303.411 178.781 302.818 178.812 302.219C179.177 302.083 179.536 301.971 179.891 301.883C180.245 301.794 180.599 301.727 180.953 301.68C181.312 301.628 181.674 301.594 182.039 301.578C182.409 301.557 182.786 301.547 183.172 301.547C183.766 301.547 184.339 301.63 184.891 301.797C185.448 301.958 185.94 302.203 186.367 302.531C186.794 302.859 187.135 303.268 187.391 303.758C187.651 304.247 187.781 304.818 187.781 305.469ZM184.281 305.719C184.281 305.5 184.25 305.299 184.188 305.117C184.13 304.935 184.042 304.779 183.922 304.648C183.807 304.513 183.661 304.409 183.484 304.336C183.312 304.258 183.109 304.219 182.875 304.219C182.771 304.219 182.669 304.227 182.57 304.242C182.471 304.253 182.375 304.271 182.281 304.297L182.156 307.203H182.344C182.568 307.203 182.794 307.174 183.023 307.117C183.258 307.06 183.466 306.971 183.648 306.852C183.836 306.732 183.987 306.578 184.102 306.391C184.221 306.203 184.281 305.979 184.281 305.719Z" fill="#22C55E"/>
<rect x="75" y="16" width="153" height="32" rx="16" fill="#3B82F6" fill-opacity="0.2"/>
<path d="M124.914 38L121.008 38.1875L120.977 34.5781H119.18L119.07 38H115.57L115.867 27.0156L119.586 27.1875L119.352 32.7969H121.086L121.102 26.7656L124.664 26.8594L124.914 38ZM135.508 37.3281L131.633 37.8281L131.164 36.0625H129.383L128.992 37.8281L125.008 37.4375L128.117 27.0312L132.461 26.8125L135.508 37.3281ZM130.883 33.6719L130.289 30.9531L129.711 33.6719H130.883ZM144.75 29.3125C144.75 29.6979 144.732 30.1224 144.695 30.5859C144.659 31.0495 144.599 31.5286 144.516 32.0234C144.432 32.5182 144.323 33.0208 144.188 33.5312C144.057 34.0365 143.893 34.5234 143.695 34.9922C143.497 35.4609 143.266 35.901 143 36.3125C142.74 36.7188 142.438 37.0755 142.094 37.3828C141.755 37.6849 141.375 37.9219 140.953 38.0938C140.531 38.2708 140.062 38.3594 139.547 38.3594C138.943 38.3594 138.417 38.2604 137.969 38.0625C137.526 37.8698 137.146 37.6094 136.828 37.2812C136.51 36.9479 136.25 36.5625 136.047 36.125C135.844 35.6823 135.685 35.2161 135.57 34.7266C135.456 34.2318 135.375 33.7292 135.328 33.2188C135.286 32.7031 135.266 32.2083 135.266 31.7344C135.266 31.0052 135.302 30.2786 135.375 29.5547C135.448 28.8255 135.552 28.099 135.688 27.375L139.344 27.5156C139.203 28.3333 139.081 29.1562 138.977 29.9844C138.878 30.8073 138.828 31.6354 138.828 32.4688C138.828 32.5573 138.831 32.6901 138.836 32.8672C138.846 33.0391 138.862 33.2344 138.883 33.4531C138.904 33.6667 138.932 33.888 138.969 34.1172C139.01 34.3411 139.065 34.5469 139.133 34.7344C139.201 34.9219 139.281 35.0755 139.375 35.1953C139.474 35.3151 139.589 35.375 139.719 35.375C139.87 35.375 140.005 35.3047 140.125 35.1641C140.245 35.0182 140.349 34.8255 140.438 34.5859C140.531 34.3464 140.612 34.0703 140.68 33.7578C140.747 33.4453 140.805 33.1198 140.852 32.7812C140.898 32.4427 140.935 32.1042 140.961 31.7656C140.992 31.4271 141.016 31.112 141.031 30.8203C141.052 30.5286 141.065 30.2708 141.07 30.0469C141.076 29.8229 141.078 29.6562 141.078 29.5469C141.078 29.1406 141.07 28.737 141.055 28.3359C141.044 27.9297 141.026 27.526 141 27.125H144.656C144.719 27.8438 144.75 28.5729 144.75 29.3125ZM152.523 29.4219L148.945 34.25H152.398L152.352 37.5625L145.383 37.8438L145.07 34.7812L149.148 29.4688L145.414 29.75L145.383 26.6094H152.383L152.523 29.4219ZM160.57 26.7344C160.539 27.224 160.51 27.7083 160.484 28.1875C160.458 28.6667 160.424 29.151 160.383 29.6406L157.07 29.8125L156.992 30.7969H159.32L159.148 33.2188L156.805 33.2969L156.727 34.4375H158.664H160.039C160.008 35.0104 159.974 35.5807 159.938 36.1484C159.906 36.7109 159.878 37.276 159.852 37.8438L153.117 38L153.367 26.7344H160.57ZM168.188 27L167.328 37.6406L164.031 37.8125V27.2188L168.188 27ZM179.359 26.7969L178.797 37.3906L174.703 37.7656L172.516 32.0938L172.172 37.875H168.656L168.938 26.7969L172.844 26.6094L175.547 32.2344L175.672 26.9219L179.359 26.7969ZM187.664 27.0156L187.227 30.3125C187.076 30.2708 186.924 30.2422 186.773 30.2266C186.622 30.2109 186.471 30.2031 186.32 30.2031C185.935 30.2031 185.568 30.2552 185.219 30.3594C184.87 30.4583 184.56 30.612 184.289 30.8203C184.023 31.0286 183.81 31.2891 183.648 31.6016C183.492 31.9141 183.414 32.2812 183.414 32.7031C183.414 32.974 183.456 33.2083 183.539 33.4062C183.628 33.6042 183.75 33.7682 183.906 33.8984C184.062 34.0286 184.247 34.125 184.461 34.1875C184.674 34.25 184.909 34.2812 185.164 34.2812C185.357 34.2812 185.557 34.2604 185.766 34.2188C185.974 34.1771 186.18 34.1224 186.383 34.0547C186.586 33.987 186.784 33.9089 186.977 33.8203C187.169 33.7318 187.346 33.6406 187.508 33.5469L187.195 37.2188C186.992 37.3229 186.771 37.4167 186.531 37.5C186.297 37.5781 186.055 37.6484 185.805 37.7109C185.555 37.7682 185.305 37.8125 185.055 37.8438C184.805 37.875 184.565 37.8906 184.336 37.8906C183.674 37.8906 183.057 37.7682 182.484 37.5234C181.911 37.2786 181.414 36.9427 180.992 36.5156C180.57 36.0885 180.237 35.5859 179.992 35.0078C179.753 34.4245 179.633 33.7969 179.633 33.125C179.633 32.2344 179.76 31.3958 180.016 30.6094C180.271 29.8177 180.646 29.125 181.141 28.5312C181.635 27.9375 182.247 27.4688 182.977 27.125C183.711 26.7812 184.555 26.6094 185.508 26.6094C185.867 26.6094 186.234 26.638 186.609 26.6953C186.99 26.7526 187.341 26.8594 187.664 27.0156Z" fill="#3B82F6"/>
</g>
<rect x="4" y="4" width="296" height="333" rx="20" stroke="url(#paint0_linear_1114_1826)" stroke-width="8"/>
<defs>
<linearGradient id="paint0_linear_1114_1826" x1="152" y1="0" x2="152" y2="341" gradientUnits="userSpaceOnUse">
<stop offset="0.302083" stop-color="#B3EB6C"/>
<stop offset="1" stop-color="#069371"/>
</linearGradient>
<clipPath id="clip0_1114_1826">
<rect width="304" height="341" rx="24" fill="white"/>
</clipPath>
</defs>
</svg>
